<mxfile host="app.diagrams.net" modified="2023-12-18T23:21:04.636Z" agent="Mozilla/5.0 (Macintosh; Intel Mac OS X 10_15_7) AppleWebKit/605.1.15 (KHTML, like Gecko) Version/17.2 Safari/605.1.15" etag="sYYpT3Fn1zgD42f-Bn8y" version="22.1.11" type="device">
  <diagram name="Page-1" id="lr_0gZkvNHLmRK4HYw5D">
    <mxGraphModel dx="1779" dy="560" grid="1" gridSize="10" guides="1" tooltips="1" connect="1" arrows="1" fold="1" page="1" pageScale="1" pageWidth="850" pageHeight="1100" math="0" shadow="0">
      <root>
        <mxCell id="0" />
        <mxCell id="1" parent="0" />
        <mxCell id="PrfleeTUdsi41c9WUQBj-81" value="" style="whiteSpace=wrap;html=1;aspect=fixed;" vertex="1" parent="1">
          <mxGeometry x="-73.12" y="459.5" width="770" height="770" as="geometry" />
        </mxCell>
        <mxCell id="PrfleeTUdsi41c9WUQBj-1" value="Google Maps" style="text;html=1;strokeColor=#9673a6;fillColor=#e1d5e7;align=center;verticalAlign=middle;whiteSpace=wrap;rounded=0;fontSize=16;fontStyle=1" vertex="1" parent="1">
          <mxGeometry x="100" y="30" width="120" height="30" as="geometry" />
        </mxCell>
        <mxCell id="PrfleeTUdsi41c9WUQBj-2" value="" style="shape=tape;whiteSpace=wrap;html=1;backgroundOutline=0;" vertex="1" parent="1">
          <mxGeometry x="80" y="450" width="570" height="670" as="geometry" />
        </mxCell>
        <mxCell id="PrfleeTUdsi41c9WUQBj-3" value="" style="whiteSpace=wrap;html=1;aspect=fixed;" vertex="1" parent="1">
          <mxGeometry x="155" y="830" width="80" height="80" as="geometry" />
        </mxCell>
        <mxCell id="PrfleeTUdsi41c9WUQBj-4" value="" style="whiteSpace=wrap;html=1;aspect=fixed;" vertex="1" parent="1">
          <mxGeometry x="235" y="750" width="80" height="80" as="geometry" />
        </mxCell>
        <mxCell id="PrfleeTUdsi41c9WUQBj-5" value="" style="whiteSpace=wrap;html=1;aspect=fixed;" vertex="1" parent="1">
          <mxGeometry x="155" y="750" width="80" height="80" as="geometry" />
        </mxCell>
        <mxCell id="PrfleeTUdsi41c9WUQBj-6" value="" style="whiteSpace=wrap;html=1;aspect=fixed;" vertex="1" parent="1">
          <mxGeometry x="235" y="830" width="80" height="80" as="geometry" />
        </mxCell>
        <mxCell id="PrfleeTUdsi41c9WUQBj-7" value="&lt;div style=&quot;text-align: left;&quot;&gt;&lt;span style=&quot;font-size: 16px;&quot;&gt;&lt;b&gt;Functional Requirements&lt;/b&gt;&lt;/span&gt;&lt;/div&gt;&lt;font style=&quot;font-size: 16px;&quot;&gt;&lt;div style=&quot;text-align: left;&quot;&gt;- put in a start location and destination location&lt;/div&gt;&lt;div style=&quot;text-align: left;&quot;&gt;- route as a map, eta, distance&lt;/div&gt;&lt;div style=&quot;text-align: left;&quot;&gt;- directions as a list&lt;/div&gt;&lt;div style=&quot;text-align: left;&quot;&gt;&lt;br&gt;&lt;/div&gt;&lt;div style=&quot;text-align: left;&quot;&gt;&lt;b&gt;Non-Functional Requirements&lt;/b&gt;&lt;/div&gt;&lt;div style=&quot;text-align: left;&quot;&gt;- Available&lt;/div&gt;&lt;div style=&quot;text-align: left;&quot;&gt;- Scalable&lt;/div&gt;&lt;div style=&quot;text-align: left;&quot;&gt;- Latency&lt;/div&gt;&lt;div style=&quot;text-align: left;&quot;&gt;- Accuracy&lt;/div&gt;&lt;div style=&quot;text-align: left;&quot;&gt;&lt;br&gt;&lt;/div&gt;&lt;div style=&quot;text-align: left;&quot;&gt;- 1 Billion&lt;/div&gt;&lt;div style=&quot;text-align: left;&quot;&gt;- 200 MAU&lt;/div&gt;&lt;div style=&quot;text-align: left;&quot;&gt;&lt;br&gt;&lt;/div&gt;&lt;/font&gt;" style="text;html=1;strokeColor=none;fillColor=none;align=center;verticalAlign=middle;whiteSpace=wrap;rounded=0;" vertex="1" parent="1">
          <mxGeometry x="90" y="80" width="250" height="230" as="geometry" />
        </mxCell>
        <mxCell id="PrfleeTUdsi41c9WUQBj-9" value="0,0" style="text;html=1;strokeColor=none;fillColor=none;align=center;verticalAlign=middle;whiteSpace=wrap;rounded=0;" vertex="1" parent="1">
          <mxGeometry x="130" y="910" width="60" height="30" as="geometry" />
        </mxCell>
        <mxCell id="PrfleeTUdsi41c9WUQBj-10" value="1,1" style="text;html=1;strokeColor=none;fillColor=none;align=center;verticalAlign=middle;whiteSpace=wrap;rounded=0;" vertex="1" parent="1">
          <mxGeometry x="295" y="720" width="60" height="30" as="geometry" />
        </mxCell>
        <mxCell id="PrfleeTUdsi41c9WUQBj-11" value="0,1" style="text;html=1;strokeColor=none;fillColor=none;align=center;verticalAlign=middle;whiteSpace=wrap;rounded=0;" vertex="1" parent="1">
          <mxGeometry x="130" y="720" width="60" height="30" as="geometry" />
        </mxCell>
        <mxCell id="PrfleeTUdsi41c9WUQBj-12" value="1,0" style="text;html=1;strokeColor=none;fillColor=none;align=center;verticalAlign=middle;whiteSpace=wrap;rounded=0;" vertex="1" parent="1">
          <mxGeometry x="570" y="570" width="60" height="30" as="geometry" />
        </mxCell>
        <mxCell id="PrfleeTUdsi41c9WUQBj-14" value="" style="endArrow=none;html=1;rounded=0;entryX=0.313;entryY=0.625;entryDx=0;entryDy=0;entryPerimeter=0;" edge="1" parent="1" source="PrfleeTUdsi41c9WUQBj-6" target="PrfleeTUdsi41c9WUQBj-3">
          <mxGeometry width="50" height="50" relative="1" as="geometry">
            <mxPoint x="215" y="860" as="sourcePoint" />
            <mxPoint x="220" y="850" as="targetPoint" />
          </mxGeometry>
        </mxCell>
        <mxCell id="PrfleeTUdsi41c9WUQBj-23" value="" style="endArrow=none;html=1;rounded=0;" edge="1" parent="1" target="PrfleeTUdsi41c9WUQBj-3">
          <mxGeometry width="50" height="50" relative="1" as="geometry">
            <mxPoint x="190" y="880" as="sourcePoint" />
            <mxPoint x="240" y="800" as="targetPoint" />
          </mxGeometry>
        </mxCell>
        <mxCell id="PrfleeTUdsi41c9WUQBj-24" value="" style="endArrow=none;html=1;rounded=0;" edge="1" parent="1" source="PrfleeTUdsi41c9WUQBj-6">
          <mxGeometry width="50" height="50" relative="1" as="geometry">
            <mxPoint x="190" y="850" as="sourcePoint" />
            <mxPoint x="240" y="800" as="targetPoint" />
          </mxGeometry>
        </mxCell>
        <mxCell id="PrfleeTUdsi41c9WUQBj-25" value="" style="endArrow=none;html=1;rounded=0;" edge="1" parent="1">
          <mxGeometry width="50" height="50" relative="1" as="geometry">
            <mxPoint x="190" y="850" as="sourcePoint" />
            <mxPoint x="240" y="800" as="targetPoint" />
          </mxGeometry>
        </mxCell>
        <mxCell id="PrfleeTUdsi41c9WUQBj-26" value="" style="endArrow=none;html=1;rounded=0;" edge="1" parent="1">
          <mxGeometry width="50" height="50" relative="1" as="geometry">
            <mxPoint x="190" y="850" as="sourcePoint" />
            <mxPoint x="240" y="800" as="targetPoint" />
          </mxGeometry>
        </mxCell>
        <mxCell id="PrfleeTUdsi41c9WUQBj-27" value="" style="endArrow=none;html=1;rounded=0;" edge="1" parent="1">
          <mxGeometry width="50" height="50" relative="1" as="geometry">
            <mxPoint x="190" y="850" as="sourcePoint" />
            <mxPoint x="240" y="800" as="targetPoint" />
          </mxGeometry>
        </mxCell>
        <mxCell id="PrfleeTUdsi41c9WUQBj-28" value="" style="shape=stencil(lVfLctswDPwaXzEkwBfOafofmYlTe+rGGcd9/X2haqiYkLWd3mSZSxKLxQLaycP74eltv+Pwfr2cv+5/Hp+vh5182jEfXw/7y/FqTzt53MnDy/my/3I5f399nn+/PU0rp6dv5x/TDr9mnCo1nlAcfs9vMuXy98Xnef3p+Hq7PlHWYX0UCgwAgXIbAY1UtgGtUMgDgBM1BIjEI0AihboNqJkkjIBKmrcBxUgaASmRBgBIJCNLOZLqNiAraR0BjSq4Ui6dkw4omUIEgEQ8JroGauiESGWMoS5auQ/gvl8HWCobulKlOAI0UkS0Bk+r2plArQbQOAISprVRGfOgpev3PkCojfLW1qO6C0iVQhkBSgJYEisX9gAFeZDg5T0B0jaAmaKsrgQAMRMnHzSDGKJdqXhaC2CpUXAhJKi9RsnlmaHJxEh5LT3gGdHSNua5KVVwIzOtNJLarKLBlYR9RRsACSNFXw0GyAigxOJjYORK1guc9AKuBqUSfB4YOWv0Zm+JjshkjHWX6YydNXfWF0DtNb7FUnYnWAWCoC0PdVWgFQBEutSWlhhCF/yWmGryRxQAMLnKqkILKul1EJUYnRDv8IoAwZd0S5BW7q1gaT+tW+19Ka0aovYGtuVJrvsUoYoAZvWuqVvEyDOsHF1TNx8EFsDSp4plzhDYTFgpjSdIgdOYZG+UtgWKIQVPqyVGQctNZSVuzFKOK4CZM5CqjT5pzEPq3rw1ZqgLAUZgQ0Meayfi6TCtAsBTjFXiWGqBErh/FSri1qP9pzpRtx6ZS1sc92Z/cB/rMur3L0DVKn5asMYFNDqNBk6jcLiY7HlcbweC/N6Y7YeAEiDov7+R/rneHj4+yF6Op9P8PXf7v/+As1fzx588/gE=);lineShape=1;strokeColor=default;" vertex="1" parent="1">
          <mxGeometry x="184.54975986653835" y="851.9110087787992" width="9.532455806820053" height="43.34888989597857" as="geometry" />
        </mxCell>
        <mxCell id="PrfleeTUdsi41c9WUQBj-29" value="" style="shape=stencil(fZbdcgIhDIWfZm8zQAg/17Z9j85U606tdqz9e/tmZ0c0uJ47xP0I5JwEBl59bp8/1kNwn6fj4W39M76ctgM/DCGM++36OJ50NPDjwKvN4bh+PR6+9i/z74/n6ctp9H74nlb4nbmSKZeJCu5vngmZ6jzzNAO7cX8FVKEsBuBKrgKg9oAE8gkCbLeUhEoEQKSUDZDLeWYRKIl8MEDRmHwfyBrBG6Amyu4+kDxxMoB3jhwgYu7TVAsVkFcWCs4CTBEoF4RctKeOxHIf8IXYpikHikAIf+MNUW94AGSSaoAoFIE3AlOyeWU+p2E5S9yfQZcQILVuQOwZdJNoS9Ls3wA5u2XZTIHECqeJ9kDpSaauRiNVcAY1QhdBzeLBli5WazpkSsBLV25uRaqWRyFawTQzRRIQYirJzq5atkBqLfouwqUxLBepthWb10vrWZY6UOAeyKCCtDV625mm9gmUC4Wc3VLJMMIE1BsA2FW9JraVlQB7n3c9oMKhCLEvIM1zBPZ25/umNQ1tVEC2G+fFCC8g398O2hNQuQlVu752DBfA+q0ptnqO5JFmeuIuo9DY7KjY71UxdJV4EntifPWorW++R/dC4t7V3DlIB5cHx2bc7eb3yvX//QNFp+bHDT/+Aw==);lineShape=1;strokeColor=default;" vertex="1" parent="1">
          <mxGeometry x="238.8679608424759" y="797.8753124585194" width="4.672539772115215" height="4.665236216357243" as="geometry" />
        </mxCell>
        <mxCell id="PrfleeTUdsi41c9WUQBj-30" value="" style="shape=stencil(rVnZbhRBDPyafbX67vZzgP9AIiErQoJCuP6eGpbu2fbMVITE2x52T9suH+U5xZuv9++/3J6C+/ry/PTp9sf5w8v9Kb45hXB+vL99Pr/g0ym+PcWbu6fn24/PT98eP1y+f3m/SC6fPj99X074edFz4tyiFNyvyw/axIU/v7y7yD+cHyd5n2b5Is4z+dpm+SiBnO+l+lnei8vH8uO0Lt+atHYsn6Qa+SIaj+WLlPn+LXUP7Mo3SfP9m5dYj+VVyuz/qtT/3lkHVRhQiEKQap4AHyhRyOLqrBDFM4XaIzQUPI9xkxAnhdKkEBB5FT8bXbJUEgUoNKMQJRIYAafZXMnTOEDhr9e7QgbwiJeA7DJnTi4SmEKQMNuQo1QSaSjobEP24gm2kTzGS6l1OO4rJNHZhpSlMbdmKbOXUuz43VcoPVuGgu+R2VcAlmZ4R5VMnhCdzehYJRG3RpSY2eiYRVlJKjbSMYljT0ARmBMohp6D+0Us2KoNq1iVSUmSTgrwG/NSqh05QwFWsScg4+bCitg7giWA2UAD+C0k0kgXk6LIQVbqs/YbdwXPe0MJPYOHQpFGbChA63wlj9pKvFTUutVHmqI1WGh4XpdqFj8rqCRSKWu1YK3SiAUNQJvTp/QE3JcP3YMjoWmpb1mygTbvt010vo+nEdBNVR31YF8+9jxZ5Zm9ihKpRp6lAcanzfmOdAWtos7Is+ql2sez1T+O2au9sa7yDA/ebSbIwAOg/e81wOUVA0xH4AbDQbN85g5FANTIJ+ag3P23ymd2ftw5nwECAG3GXiUJgPl4Ix+Yf5ydB6MkUlAgX2YABdo5lnl9Pn8MPkfybS5Yjs5R8Kez8pFUUN20PgCW3afYhIE8O39MD1f3Yf5pdv5wdIQC/rPpABxvavEfXisQavFACYv2QfoKb9xeO9GJ/k/5zSBeKd7QMEx80ZNJvqMhpXmwWSgYcSg6nulgnkegbsgKpghPTK6bSQhzCsMoCFybfQTOxgb96nrRHwoIO6kSpXZOOVDnaVqW1Ie9oYA6RPIAfCzNebMUXnKlhY+ZAbPSWQsDZjSdrFGWmYOdeaOny5DsuolXgz4bMNOmmYFKMP4EPpaNQqFuBZXwhg5xDoi/2xy4NEbCIzpk2P76zH2FZOEN+pI5QzMpCr8FEml4PcxoXenLvoK3RRjUmm1dwMfUkHf0IVJW42auzpUWgbCpGuA7LNJhZPDVioPZAPQbaoCkDcQGKJjWXDj4kJBmW1YaX3Fs1gN1ROZwY7FZZjEeu0yvhg/lDvijRZBJIFAqNkCi9JqqUZUvs0pHztgp8gRC+zBFoA1Wsq8Qe/sYCpWyFpBQg9aVhx2sOd1sM8a+TOSrjTPGOM/6Ty8QV2vpQHxabAHA2MHlLatGchCPAjNmTY4pg21DNvYqnRnSZq0ODBGUJktalrGPFTyJhgU6zmNDD+f1AxhvtFM/5BtLArvmU6VtytntEuTZttX1ynYVYKXnuw0gWH3/9/csr8njw/pS5+788HB5J3T9v30JhJ8uL5Di298=);lineShape=1;strokeColor=default;" vertex="1" parent="1">
          <mxGeometry x="170.78757266241064" y="794.8644232028846" width="70.32825016976403" height="118.3480415530571" as="geometry" />
        </mxCell>
        <mxCell id="PrfleeTUdsi41c9WUQBj-31" value="" style="shape=stencil(lVfZbttADPwavxK7y734nKb/ESBObdSNA8e9/r5UjZVNRhojb7LM2eUxHFIbfnjfPb1tNym8n0/H79vf++fzbsNfNintX3fb0/6sTxt+3PDDy/G0/XY6/nx9vvx+e5osp6cfx1/TCX8uOKYUJlAKfy8vWqHY/r/5erE/7F9v7GOgXiyAqTEANOJoAZE6uEFdqskAqow3iwAOFNkCKvUMAPp3tQCmDG7ITCUbQBFKIOgsJM0CMhVZB5RC3QatRySQpRop2BsmJzsAFKq2cNxg4TTrLkushQvrgNYGcwYgRUplHdCT51LUOoAs9U7NsrVAKkn2FyhVQJ2leq4GWGZpVMVGTCEC+z54efWfQUZFiW/tBfdaCBRsgmIeVVy7obsINEWgdxTAlqgaw52Y2dIodRJAVE1qsC4p71D/y0dmJ6oo6OxFT2+ALilRu41BK4OIF32hNUsCWkEB0d0QMfWCV5ioN4De0RuSdUmlvGGA2LRWiiirTMHKsFYBkTsT2wgCZZRT7XV29gGd34b4zAGPDKwRNVveZQqoZDJmxrDvFLG9WP9V7SLqHBmknAHqIpaL4lqNcUpVT10zN8yJRsXGoMNXUAx1qMlNbxYUw6cBH3g9jXcQdC+ULSAnOP2b+O7PqmmgN1saZZplfl6ClkdtG0mcWy2NyiwDkqdGVfKBLKkDLuiGV56iabU3tA43mJz9bO4MFUzXD7fy9DaEfG3PEwuQ2cnlTTJ7BVDNCUDCdFftNgalYwBBxzjm9wyYV4LlGMbYuIowVrHkB8k0sYGKpaFZs30fg2I5gsHkmwAyOF9nhvOnwF4IfqPSWdqAP2EUaCaFjKqv2TvW1Tv2Tl6UpSg/OpNsG3TlHDxf7BDRtumA1NFveK3CVSQRu/MLXAk/+313314frh+TL/vD4fItevu///jUV5cPV378Bw==);lineShape=1;strokeColor=default;" vertex="1" parent="1">
          <mxGeometry x="174.09151762820898" y="870.5498316238904" width="55.53038084884952" height="15.35697659983066" as="geometry" />
        </mxCell>
        <mxCell id="PrfleeTUdsi41c9WUQBj-32" value="" style="shape=stencil(lVZBctswDHyNrjsAQYLkOU3/kZk4taaunXHcNvl94apyA8nGJDeKwpIAdgFwkLuX7cPzZkj0cjoevm9+j4+n7SBfhpTG/XZzHE+2GuR+kLunw3Hz7Xj4uX+cvp8fzpbn1Y/Dr/MJrxOuFaR2RiV6m3ZqheS/O18nwG7cvwPUhJo9oKHU24CSIMkBGkP5NiARanWA3sHtNoALOC8BWm4D+jKEXqBRCMvzW4UGOWI0H3FV5CBiAouzVwFrZJ+8P7kjBf4ncHH2okgUxave3nb+cXg9XoJ4EXFFDQIwxpq/gXN4g6U0e03YERJQnBSqPgYKXRJC8zGYTHoEEGj3LCRQwLJkVA8oJZSRAcgHrT3UkTCKv8FKrQdEJ9OxV15n1KDUTEpKHtBAEjBdQb4WmAgU+MQrqnudd64CFMVrqRvTUX+ZdXBJEiEHNNhfn1St4fmX8C40C1rgP0M8B9nKKbDPS/vUoEHtNFTvD/e5+q77I+iLas7oUQBXAYGK1iMhlsR65ggoYGw91HLYH1tD8yktc46vzw9rqF6iDTloFTZemH2CJAaY4hfNyDIUTbS+HFFW2iHJtJKpDYUc1eUakS3PQSGsnbJKiHrwOmy1jvapxGqbZ90HmavxqF1Lw2Z5CrT96QfVBwC2+P9+exp3u+n59/7/8r1nW9NbUe7/AA==);lineShape=1;strokeColor=default;" vertex="1" parent="1">
          <mxGeometry x="164.77642051366252" y="882.6260532805825" width="14.333590039099136" height="5.8178126356961" as="geometry" />
        </mxCell>
        <mxCell id="PrfleeTUdsi41c9WUQBj-33" value="" style="shape=stencil(fZbdcgIhDIWfZm8zQAg/17Z9j85U606tdqz9e/tmZ0c0uJ47xP0I5JwEBl59bp8/1kNwn6fj4W39M76ctgM/DCGM++36OJ50NPDjwKvN4bh+PR6+9i/z74/n6ctp9H74nlb4nbmSKZeJCu5vngmZ6jzzNAO7cX8FVKEsBuBKrgKg9oAE8gkCbLeUhEoEQKSUDZDLeWYRKIl8MEDRmHwfyBrBG6Amyu4+kDxxMoB3jhwgYu7TVAsVkFcWCs4CTBEoF4RctKeOxHIf8IXYpikHikAIf+MNUW94AGSSaoAoFIE3AlOyeWU+p2E5S9yfQZcQILVuQOwZdJNoS9Ls3wA5u2XZTIHECqeJ9kDpSaauRiNVcAY1QhdBzeLBli5WazpkSsBLV25uRaqWRyFawTQzRRIQYirJzq5atkBqLfouwqUxLBepthWb10vrWZY6UOAeyKCCtDV625mm9gmUC4Wc3VLJMMIE1BsA2FW9JraVlQB7n3c9oMKhCLEvIM1zBPZ25/umNQ1tVEC2G+fFCC8g398O2hNQuQlVu752DBfA+q0ptnqO5JFmeuIuo9DY7KjY71UxdJV4EntifPWorW++R/dC4t7V3DlIB5cHx2bc7eb3yvX//QNFp+bHDT/+Aw==);lineShape=1;strokeColor=default;" vertex="1" parent="1">
          <mxGeometry x="202.8679608424759" y="829.8753124585194" width="4.672539772115215" height="4.665236216357243" as="geometry" />
        </mxCell>
        <mxCell id="PrfleeTUdsi41c9WUQBj-34" value="" style="shape=stencil(lVfLbhsxDPwaXwlJlETpnKb/ESBObdSNA8fp4+/LxULukrFn69t61yOKnOFQ2vDD++7pbbtJ4f18On7f/to/n3cb/rJJaf+62572Z33a8OOGH16Op+230/Hj9Xn+/fY0/XN6+nH8Oa3we8bVRKFNqBT+zG9ypzK/+ToDDvvXJSCSFAPgRpFvA0qnZCMkpg4AmalUCxDieBvAicRG4ExNAKBSjjbpRhkAcqEaDKCGkdWtKnG2AE0a5CBMiQ1AAgVQJWmUbA5VSACgMdXuAaEDQB+fLwBlGiTdmVr2OTQQoQtly7Rk6hkAupeGdByhU08G0AolFKFRsUz3QDkBQPE5dBUfqlKkaInTmBGIT3fc3ZY6rFILxJa4GFRMAYipUMx+T1wAIJC4JHQJAFCtOea0roIAdch/wVwFHaSAJBagPYoitPH5IqYCARK9z+gbZH1Sh6ssOoiBmFr0HaR1iyDpps7IHlDBlnoitjxU7SAE+OSValXIK1WcwZUV63shzgtzGgIQoSGio7pBMWkS1elbhwyoq5apWqrVqxKu630AHYviuroNJ7k+gyqV4nOoAKBD0BmNVqkB30jJN0RLw0muM6czzfIgiSLYUh2mshijGdDwSRgZe2v0nsFx2Pn1BvXrxzZs6vr62gxuSlNAB41I2QbAPpy127v/P1hfDxWuoGpIKN82+urCMLT5lqna8ZkydDwF9LtOh1MEW9GV86cC2Ja0qGxBzuol7ihWMuwbNWGxJJQK+0bPIGI9taiMQN+IeNrUDRo6HWY/bqfGwaOq93sAOgXcXFjZko5bx/RK0jWPA/B/lnUSt3WXFeL0LuNG1Yo0rl9+UL+t35b04d9d62V/OMxXteV3fzfTV/O9jh//Ag==);lineShape=1;strokeColor=default;" vertex="1" parent="1">
          <mxGeometry x="172.13275689520583" y="796.3508643633813" width="18.904629593577056" height="19.463291652828957" as="geometry" />
        </mxCell>
        <mxCell id="PrfleeTUdsi41c9WUQBj-35" value="" style="shape=stencil(lVfZctswDPwavWJIghee0/Q/MhOn9tSNM457/X2haqQEpL0J32R5V8SxWEgT373uH152U3Cvl/Pp++734fGyn/jLFMLheb87Hy56NfH9xHdPp/Pu2/n08/lx+f3yMCPnqx+nX/MT/iy8yFTSzAru73KHCxX3/87XhXA8PGNCJBkjMCU/QghCHIYIhQIPETSkPELwMpi0T1Rw0pwtwVNCSQdK1RAK1QTwnqI3+EQh3sazUGzaRh7hC3n7fI2/ADyT2PgdzJcduRbvQAc0PZYRvFtl/zm8z+TCQPzazhKa+jjQr0rBhhPIyW14aquDuxWosIFHqE5Pvhh4plBvw11b+koM4c6m6h0JyLXHR5hsj9dRAa3t8Jp/BFLu8Yk8sJ8eX8fi+cBAe7yKCUizw6sZReCGPb5Shv1q5JDi6i038MVqOTsKUJ3JWmcu62x+TvyFqSKrXbPb8LJ671W8nm6fX9WLgD5V7t4mIA56g2fKdh6FV3e5TlBztilIhiHN5tQQKkWg6blI1v5FFwgokmre2yp5hx2XPYU0xlBXKyNBzYNSR9LWLdwXtqI3ibwGsBE0SEBI3TSIngnEkdIawCa/CpPW6ZJoCZECmOfcrb6qCgZ9KN1uLZEqcNSSWovJQhn0oVQSK7/M8IQaKNockgoSjJDOcFOlFNZXtusEIWf7EAtlMHPi1y2wEQIJSFq2tffO6As6IbdTzYkyaJxoxDaHD1bP23xthO2984b39dtK9wXo3DVGe4ZevH3wPB2Ox+V76f3/7QeS3lo+rvj+Hw==);fillColor=none;strokeColor=default;" vertex="1" parent="1">
          <mxGeometry x="174" y="799" width="32" height="23.875" as="geometry" />
        </mxCell>
        <mxCell id="PrfleeTUdsi41c9WUQBj-36" value="" style="shape=stencil(rVXLcsIwDPyaXDW2ZEvymdL/YIZQMqWECdDH3zeZdApyBvXSm6PsJiutLDW0Ou83p7bBcL4M/Wv70W0v+4aeGsTuuG+H7jKeGlo3tNr1Q/sy9Nfjdn4+bSbkdHrr36cvfM68ACFMJAxfVeB5hh+64z/CyYVHYDVwgZgewxFKMnAFyY/hCVI08BhB9TFegLLFZ199ACyW4AuKBGgTQF9RZIi2QPiHpAIRLUEgO4SxpoGtY77DNwG/BPT/ILVr5OcwClCbNClEcggEapNOEdDxgRjEJp0SkOMDFRDbSskva0Jg20s5ADs5pAzZ9lImv7kVMlkCu72UF7eHfadzrn1gcn3gxX3g7CbNqS4r+xeIF+0tvtNCdZXEd1oW3Sq+04r11FBfkua6SupLUq2nhvqSSqynRvGbr6S6rFNEHILUU6P4kmJYbIa70A9lPNy21q47HOald/++3nJjaN6QtP4G);fillColor=none;strokeColor=default;" vertex="1" parent="1">
          <mxGeometry x="198" y="791" width="8.5" height="20" as="geometry" />
        </mxCell>
        <mxCell id="PrfleeTUdsi41c9WUQBj-37" value="" style="shape=stencil(lVTbDoMgDP0aXhugQ/DZuf8wESeZE6Pu9veTkOmiCUnfSjkHTlsODIuprQbLJJ/m0d/sy9Vzy/DMpHR9a0c3LxHDkmHR+NFeR//o67geqoAM0d0/wwnvyOPAeSBJ/tklLhHeuT4FR0AkwAXSjpeKKIdDRtGDOaAh4E8GtCLglQZF0Z8R69UCJEWPzmh4Q3wOBkEk+i/krx0rIS1om/9KSE8M9f6GXIBJENShhjw9A32QlKeHLPjRBnzf1yXYLNq4rosO/9/fW3pJxe8Ayy8=);fillColor=none;strokeColor=default;" vertex="1" parent="1">
          <mxGeometry x="173" y="851" width="1" height="20" as="geometry" />
        </mxCell>
        <mxCell id="PrfleeTUdsi41c9WUQBj-38" value="" style="shape=stencil(pVXbbsIwDP2avlqJc7H9zNh/IFFGNUZRYbe/X7pqDKfDCO0tTc5p7HNspwmL43Z1aBt0x9PQP7fv3fq0bcJDg9jtt+3QncqqCcsmLDb90D4N/et+PX0fViNyXL30b+MfPiaeA+dGErrPaQMRHH/vPE74Xbf/Bz4CisJ7gYjX8T4DR02IEPN1QrnBe02wIwoJkBSBgZKRAUFAhU9mBkmANd6OhzwwK/xZ4z/xjODjPXgBClU8ycBLAqctIxvPgJUBxRIyCFI7dkOhOSE44HBPSNHWSHLtQRQ7h5lI6YZKCFGHlCMkI+liW9U55My641ldUzJVYg+YdCPYN1AG0iGxnQNh3Tps91pmCHq8iF0aeTZfxO7O7MFnTSh3GiolBtHt451dTIUR+T7GbGTIDZ0QRFtXKhgtAtXlJ/YUKNZRNSVtnYghVYRg5sAZgg6JCHI0Wij+HJ8JdnFcyH5uulrXsvh9Gjfdbje9rJfn9VNatqZnOCy/AA==);fillColor=none;strokeColor=default;" vertex="1" parent="1">
          <mxGeometry x="201" y="765.375" width="28" height="30" as="geometry" />
        </mxCell>
        <mxCell id="PrfleeTUdsi41c9WUQBj-39" value="" style="shape=stencil(lVZdc+MgDPw1ftWABEI8t73/0Zmmjadp0knT+/j3p5wPNyKOpn4jzq7Bu8vCQHcf28f3zYDh43Q8vG5+jU+n7UD3A+K4326O40lHAz0MdPd8OG5ejofP/dP0+/3xjDyP3g4/z2/4PfEoQIxnFoY/05NIkMK/Jz8mwm7c+wSEzKsIwZ8hQs2GIBC8CQikGDyDZAfPbb0Nn6DKbXwKQGjwBBEdfAK2+OgKlASqxYf2gkV8Jijc4YOjZxbg0OEp3sYzQg3d+v8LvIxniLRCTxZAMfgK5PjFBUqy68mAjqCcIdgAIUIihxCgWIKGFj0LEohdEkkLybLHpUVy1ojbtrgVOrEmZ7Vl1S5Q3z2VsECysVPjvVx8xX4mqAxO8FT1YFVSZ4rjgwanUE9IjqxqE+c1S6IK2BGoCb3sQ4XEvUrVzxKukrVoO9h+5Ajs7B/B5usFwSvIGlvffpdwlVYl1HqbEMNcQRdGRKc0dArqvrq0mlomXLWwCudtCLnKRil+bQiInUGVzk4xZYbUHVQC0QsTtffNzad7yjuqIsSuKvUbvC0XWtHNBC1XJ0x6eJOtjQsvl2VqSfjmDNj3UpV2XiyvCEL3yVrnTgdcJU/jXs36dfB1/Xked7vp9nT5f39d0kfTVYse/gI=);fillColor=none;strokeColor=default;" vertex="1" parent="1">
          <mxGeometry x="261" y="768.625" width="23.25" height="40.125" as="geometry" />
        </mxCell>
        <mxCell id="PrfleeTUdsi41c9WUQBj-40" value="" style="shape=stencil(rVXLUsMwDPyaXHccS5btc4H/6ExTmqE0nbS8/h6HTAtKiMqBmx8rWVqt5IpWp9362FTenc5999S8tZvzrqK7yvv2sGv69lxWFd1XtNp2ffPYdy+Hzbg/rgfksHruXgcP76NdHUBpsPLuYzxxcO7r4GHE79vDv+I9shh4QmSFT8jZwHsEp/DFA5Nh4BAmATlQXDZIkKDxCdHIWBBJ4SmZATFSrfBcXqyX8R5Jxx8SyEoYrAmViGAw6sDafwzIhv9r/a8F82Aj/jk+moqY4bO/Ef8ULyCjXrN88y3+eSI4Z7fATBA5I7DZAizaIGLYLkbkIZOUCTktGxChjroG+aLC3zXKiFqkKaA2ihBmSccMMVQkpal0m0U2WSr+SL8gGdnIochsMilEIEbjFxK9ZknYZKkIx2kpCV2GzcIsmolVbozHP1iUxfe037b7/fhZ/Lyf/g7laPxZ6P4T);fillColor=none;strokeColor=default;" vertex="1" parent="1">
          <mxGeometry x="273" y="853" width="26" height="27" as="geometry" />
        </mxCell>
        <mxCell id="PrfleeTUdsi41c9WUQBj-41" value="" style="shape=stencil(lZbdchshDIWfZm/PgCRAXKfpe2QmTr1T1844Tn/evng2bA3equVuDft5JR3pwMQPb/un191E7u1yPn3d/ZifL/uJP01E83G/O8+X8jTx48QPL6fz7sv59H58Xn6/Pl3fvD59O32//sPPhfPOwbkrRu7XsrQufF6Aw3y0AQaFIcAzYhwiKCKPfYMZzEOEMMJY4kEgaYiIgjgWVWJ44xs5I4UGUAfJJhB8C0R4NQGKDZAdSEzAUQswnBWSIqUWCAhGmQrwsb0CCd7ojwKQtoCCrbIqnLRAqZuVQ0LKbZM7e5AKEcIowa4PyltBRagfSjuCqS9sMEa1CKWdErE25N8A3+UQkC2tBZ564GNlGygD00knSBbgkbsqMbKhg+ZqRjeAZR2a6vZ/ToQKXDcRhGgMacoQ3wNkAXI3pB5iKB31rqwO0VA6ElxnNBlq+EYIiNIDYrSG3FvZaj3bAFf3XQFFNADW6nQ3AHkDWE+dFUgQozVIq643dmwZDUlvxxqqfW6fKaXq3Qkh1Xm2gaJDa2VK5oh6j9SF5KtTbbd3X6TSvtFIIYDbgFKxZyMDrq64vh8hhswOudWgTIca8W8d0tkYtn8f6uXhzw3tZT4clgve7X5/oytLy22QH38D);fillColor=none;strokeColor=default;" vertex="1" parent="1">
          <mxGeometry x="248" y="870" width="51" height="30.75" as="geometry" />
        </mxCell>
        <mxCell id="PrfleeTUdsi41c9WUQBj-42" value="" style="shape=stencil(rVbLchshEPyavXbBDAxwdpz/cJXlaCuK5JKVxP77zGbDxhB5HFK5rVA3MI9uZuKbp/3d424i93Q5nz7vvs/3l/3EHyai+bjfneeLfk18O/HNw+m8+3Q+fT3er78f7xbk8vXl9G3Z4XnlFWRZSORe1gUH534ufFzhh/n4H+EBvgzAC0oegHuCyAg+IaQBPDF8GMEXyEi4LKCR/QOBR+INGY4H8JFBI/mPGZEsPJcGLww28BmFWnwy85kRYoNPHmLsn2p3bfgI7y28Cy0+wxv9I/CuwWcPMu6jp7f5zIxs9EMAcYsXBKMfGKnbv8AZ9dXqt/Uqen8jXu3GNv+Fa0Wu4j2Cb/ERZLiJQ2nzX6SuvIH/pe4Nn0HGfTYv2/AF0cjnH3jvbDv8B0IX8XsEQqY+BG9IPkLaFiqp7vB3EtYSOKMlfKgdthGCqXlfkLoIyDRdDaELWbu6WCqgPoacwMYJrK7W6TjUS17XZYB0BKpWcL0Krldy0hgMJ4oBpSPYVqTOLG3QSb3CiEE8Siued8xRNCfdCcF8zRYzb+Wf2HzOkqs33giEYLwHuh+FnuAMA9CcuNYh9QXxhkNq1nOXJQc2srQ0QnuCFARDoNpq3SMl2TQlbeauDppoy/WKq/raCAK2nv0t6xshVoVcJ6jk2yxps4g1iEhfOCVYhVNj992ooE5oxPDKR99k6MfvqflhPhzWofv1//2UrUvrhM63PwA=);fillColor=none;strokeColor=default;" vertex="1" parent="1">
          <mxGeometry x="276.375" y="857" width="26.625" height="28.625" as="geometry" />
        </mxCell>
        <mxCell id="PrfleeTUdsi41c9WUQBj-43" value="" style="shape=stencil(lVTbboMwDP0aXq04TuLkuev+o1LpQGNQUXb7+wUxtpqLp72ZcI59fC3ocKtO17Kw5jb03XP5Xp+HqqCHwtq6rcq+HrJV0LGgw6Xry6e+e23P0/f1NCJH66V7Gz18TDwDxowkaz4XD48TvKlbDW7BxH/AveodwScBRwOM+3gLHCWeIPA+3gGyxEdgv48PkJzMliDSPj4BW4lPQFq+2Z1MmBywkkDWa4IgOANWUZQFB5QEB8kqhLSskUuzi03CqFgm7QmSQnA49+iHwBA1AoOVEQLOMTcJfjUXwatV8qtGhz8GAwFlWRnBKYswCpCS2M1ZbRNWneYsUpHEdlmlaNTdzP5IDl+kef82Cdmfl5JiUPsQPaCMkAygsg9pNRrJAymjgWZ1Ye6evinZ+L1+l7pppuN5/395LfPTdGnp+AU=);fillColor=none;strokeColor=default;" vertex="1" parent="1">
          <mxGeometry x="297" y="866" width="9" height="32" as="geometry" />
        </mxCell>
        <mxCell id="PrfleeTUdsi41c9WUQBj-44" value="" style="shape=stencil(lZjdbtswDIWfxreEKOr3uuveo0DTxViWFGm6rW9fB8bUOkclpzvX0VeL5OGh7EnuXvYPz7vJu5fL+fRz92d+vOwn+TZ5Px/3u/N8Wa4muZ/k7ul03v04n16Pj+vfzw/XlderX6ff1//wd+UkUIxXyru39U6IFNY731fgMB8/A4lqHgIKVR4CKuWwBZhq/RoIjpzbAu7fM78Cbra0PFO0JzAVvwUSSRoChESGAEfiRmLwhfJQlgxgKRyXkS195KQBLao+AOJb7hRNGp6yjBROIEuG+HwlVzdAZIpKDB6yFDPFogCZ/LaBklAKQ8DSIUodEMiRsqJWBIpe6Q6gF64DZCpDWSp6pbEOFgCVNgCBBiq6CaD4im4CAiZg1AH7wai0NKk1gMkrVolAaon+zxgseWPHtTt9oHVwA5qP9AHYUmyl7AIMWjJcg3GKClUlaEZf8hQUm8Edja43IsAZWigodWasgpBTxO1Bq4ZRdpTkiZWYAzwhRWIl6AhlM8SdYMIZVpxHgQJpNYCKWTIA3JIedIUGNdLKDsRktHSP0McubsrouAoDxThrVBCH1721QgycKGWl1uCtepYyaEPvuATrdduLsB99Pfabvh4b2nAMlDY5pQAM+19cLSnDDSTBurAhXtZbDU/cgbyi0dETOqw3XjKG32LgeK6fkCCfxntYZ+joU42hAhYALWABwzGgEekAVs1wrg6gj2YErAMSAMakRWA5RuYhwDr/o5m6W3dZLj4+azzNh8P6VeTz77efQZZb6ycUuX8H);fillColor=none;strokeColor=default;" vertex="1" parent="1">
          <mxGeometry x="230.25" y="867.25" width="13.75" height="8.25" as="geometry" />
        </mxCell>
        <mxCell id="PrfleeTUdsi41c9WUQBj-45" value="" style="shape=stencil(lVfZTgMxDPyafbXiOOczx38gUeiK0qJSrr8n1YqjnWXCvqVbT+wZH0kGu3he3zytBu+eD/vdw+ptvD2sB7scvB+369V+PLTVYFeDXdzt9qv7/e5lezv9fro5Wh5Xj7vX4w7vEy46ce6I8u5j+vL94Xqy34xbau/FpyX2RTQssdckYZEDrRLqIgZRgl8CsMaZaaTi4ymgSC0E4CWeeghRMiMdz0NqPhMjnc89tC2q/Q1IwCE50UwAEFIKEvRvQAZZU5ZCZM3goW1hpJZykXzKIXtxhHSxGUAhiSsga25bEA8VZM1BIvFQMaQOIIGHTkjIgZOuKKuKkuJTh6kukkjm5hBJlBTHHMJLJvWHNGKRQCoclY1BPGFRoa0jH64FPHTmQIbcBZXI2hoA1pnHEJKFL91mAQG6tDMtDSrcnESSOA+AdqYUAlAIqQOAyujYI+UOA0iCiSOa4nnSzkSSNGiFTlWgfRFbEn+rkszON2jN+MXof/p3RphCRRQVI32j4KHwNsCaq0EcGRbIoXJNsQ1+jbR5BLRmraJEVsOY+HgJeHmrUkgiZgA8ERhS5yxB0rGKkdub4d0qSWLFDSF1Jh6Wt+fliv2m/KqEAyxLYv2AN1YxIiocCk4KIQwp4HU6szs9BM/l5+YKw7FjD1pye0xWx37h/tbdvy1+Xm9342YzPf5+/3/+2mufppeiXX0C);fillColor=none;strokeColor=default;" vertex="1" parent="1">
          <mxGeometry x="201" y="827" width="10" height="14.75" as="geometry" />
        </mxCell>
        <mxCell id="PrfleeTUdsi41c9WUQBj-46" value="" style="shape=stencil(lZbdbtswDIWfxrcH+qMkXnfdexRouhjLkiJNt/Xty8ywF8nZGXynyPwk/hwyGuLD2/7pdTcE93Y5n77vfo3Pl/0QvwwhjMf97jxebDXExyE+vJzOu2/n0/vxefr9+nS1vK5+nH5eT/g9cdGh+CsV3Me0UwWp/Nn5OgGH8ciBBEkESEjaAh6OAMk+5wYoCc4RYHVDVigBxM3nLUBEDAQQSBu07cT8byBbDKEBUp7zdh8QFGmAWFCIS7nOIc5AUDhSuOLmui6AhycuGeBqA/gEr8SlxeOl0shC7C3pbd3sfGIvBbWNwCNWYu8hrb3bqCOHSPyxCrlWFQGJlMwKJLGVHZTZB7hWEz6gkgC8zP4ugFIRKWpqAyjILKN9G0SBEkV4aFsAS3Emrb/qSwnQLfbZQUjFVoIwyfpIFNELugRk0vaK1Oa/lDlj9/1J0HbU2WxkF1gEoQP4uLYW7CRRK4SU2CqaWpGqp12QwpzCBbA2JqJLdXVDpnNFEmIHFNo4stK1KiKfvn3jOD4rbDj2s+h/hLVK3UTU1V+thcEGal3Xrs4Cuw9YWsqWzKr1Y+dSRiW1U0HubhBUEoOu1SHwJIabLN4IMG0kIkrTRbb4+2R6GQ+H6cV1+71/YtnW9DyLj58=);fillColor=none;strokeColor=default;" vertex="1" parent="1">
          <mxGeometry x="369.25" y="1051.125" width="31.75" height="36.125" as="geometry" />
        </mxCell>
        <mxCell id="PrfleeTUdsi41c9WUQBj-47" value="" style="shape=stencil(lZPdDoMgDIWfhtsGiwW8dtt7mKiTzOni3N/bT8MS/4DMu1rPx6EnlIn0XmW3giG/9117KV4m7ysmDgzRNFXRmX6omDgykZZtV5y79tHk9vuWjcqxurbP8YS35ThwPkLIP6vGycpr04TkEZDyyx16Dhr9QIyg5QLAGHTAgTYOIgIl/YBEoCUweEryA4rWDhRDFJhBq7WDJMDED0R8M8Rk+i+hw1O4CA0Y7yKScLQuIhyViyCgfVklcvet1N6sEh18tg5i1vohQzFtYWnq2i7x/P96a4eW3Xhx/AI=);fillColor=none;strokeColor=default;" vertex="1" parent="1">
          <mxGeometry x="350" y="1049" width="1" height="42.5" as="geometry" />
        </mxCell>
        <mxCell id="PrfleeTUdsi41c9WUQBj-48" value="" style="shape=stencil(lZTRbsIwDEW/Jq9WEidx/MzYfyBR1mpdi0rZxt+TqtqGC/XEm5vcE8fujQ1uTvXuWBlvT+PQv1dfzX6sDb4Y75uuroZmLJHBrcHNoR+qt6E/d/v5+7iblFP00X9OJ3zPnAVrJ8jby2LhdZa3TafJHThelzvIXsgzRFLkFpCFviRkrwABiCRA4HEdKDeKMgMWICsAQ4wCCASslFzOi7JFMQO5dSBECDJDKkBcByJCcAIgvejIYGXRGYEVICGkIIEMOSgAgZU1sP+55GOAAaUzOEBWrEF22SVOkJQukQdCCeg/juLS21yKVqwxdV2aj3/N8hi481IBSMmQPbAEnNXfZ06A6SmCywtzzxF3hv2PuNlfR0rwN6QOTdvOM+52fznUytI8EHF7BQ==);fillColor=none;strokeColor=default;" vertex="1" parent="1">
          <mxGeometry x="406" y="1045" width="11" height="56" as="geometry" />
        </mxCell>
        <mxCell id="PrfleeTUdsi41c9WUQBj-49" value="" style="shape=stencil(lZbJbsMwDES/xteBRO3nLv8RoGljNE2KNN3+vgwMuZXsDpCbo+jRImdIa3A3b7vN63YQ83Y+HZ+3n+PDeTe420FkPOy2p/GsT4O7G9zN4/G0fTod3w8P0+/XzWXn5enl+HGJ8DVxyaK4CyXme1rxBmlauZ+A/Xj4CwiSvQqIsL4BXEQOBMgooQUsgiVAQZYGkAJDjpQ1Xm6BAG8I4ODaKomFSwTwyKYBbILzBAgwpQVcLfR/b5BWB2vgMwEENjZAQozXyBAQmWweoY3vqQgx90YSeCH7bZVoTrhWYHV/EJTWFQaGaOw9bLhivwtwudufyXkkopgu30zytQWhdPUX4iD1S6dvhmcWhe0MpwZh9UFs07URgegr1e9zuhqf+FOr1/VkhpD4szrzlNAWovGlzdfr6GP1hO/sXGrF1v3Qd3yI8KxfYFp7RjUg8Y9d+F9ndyICqz6la/iMyBRz1QCzg2bR14HF4M1qWuJpnfyh7bHi6sq66RwktUCkSYeFLQqXLSx0sIY3vupkfP+KSIBkaiPOgM4+cib9ZMZ2NJZEe0dne2fWEuo0XgcSkvRCFCJEkWrOGRD6QdMT98oZKoQW0S/MRBvCLLReEPrwe/N5HPf76eL09//+pqRL0y3L3f0A);fillColor=none;strokeColor=default;" vertex="1" parent="1">
          <mxGeometry x="430.25" y="1061.375" width="42.75" height="31" as="geometry" />
        </mxCell>
        <mxCell id="PrfleeTUdsi41c9WUQBj-50" value="" style="shape=stencil(lVXbbsIwDP2avlqJnZuf2fYfSJRRjVEE7Pb3c1cVcNZa4i1Nz0l8OcdpaHXerY9tg+58OfVv7Ve3uewaemoQu8OuPXUXWTX03NBq25/a11P/cdiM38f1gBxW7/3ncML3yHPg3EBC9zNu+AKJ/3ZeRvy+Oyg8F43PQGEZnyFFjUdItIz3ETgrQoFoxOMZir5A4sFlPCbwOuEAxS3jCYH0+QiYDXwBDArvIPplfCBwvsI7I56QpvRu8Tgj3yDlo6o+zohf8FwJIkwtnCdkyKwDClMJ5glxauhEoDjVeJ6AtYbkTjRyJoasaxrZFCklyEkXSXSeDAJB0V0oHpxFcFC0b4r4zAhJZJ80gck0pvQVddIsWdlOCNppLNo1rDlzA5udnslBOmN0mjwkXVbvbDuIdFJ6iBE8+IeCErEFquvERidigFzdkKepOUtICKXqRJqm4PxQdbWFOEIwcsgSgJ5KoiY2WlcC+OoGhGCoqVwddiWIhYzBxzJWtJqGI4yy8r9BIxYio6x3Srgy5HFQdZXF7WXcdvv9+LDe/69fUtkaX2F6/gU=);fillColor=none;strokeColor=default;" vertex="1" parent="1">
          <mxGeometry x="474" y="1047.75" width="34" height="49.5" as="geometry" />
        </mxCell>
        <mxCell id="PrfleeTUdsi41c9WUQBj-51" value="" style="shape=stencil(fZPRbsMgDEW/htcrwIDhuev+o1LTBS1LqjTd1r8viGkLmcKbMfcANteCDrf+dO2Elrdlnt67r3heekEvQus49t0clxQJOgo6XKa5e5un+3gu6+spK3P0MX3mE74Lp6SElBnT8lFSv4nXAgxxXAGBoWq9Bvl9vWd4qvTKgtU+wISgKoAIjvcBx6BQAUZBNgDLcPUNVsM1ajAObCrAGeiwD5BDcBXAttlV7aFrwKc2UAOQcLYCgoRq1JC6nvfWAIFtA5DwXAMW1jQ+DnrzIgfTKMGANvrUhIYx/hl15d0fIAV/Rr/EYShzst7fDkZKlaGi4xM=);fillColor=none;strokeColor=default;" vertex="1" parent="1">
          <mxGeometry x="452.5" y="1074" width="11.5" height="14" as="geometry" />
        </mxCell>
        <mxCell id="PrfleeTUdsi41c9WUQBj-52" value="" style="shape=stencil(lZPRbsMgDEW/hlcLsAH7uev+o1LTBS1LqjTd1r8vEatWMoG0N2PugWvLVri79Idzp6y+LPP03n3F49IrfFHWxrHv5rikSOFe4e40zd3bPF3HYz6fD6tyjT6mz/WF78xp0HqFrL5tEq9ZPsSxLffuH3IHJHU5QfCF3BBw43mBYAt9+pCxrjcefCgA1IANQ8nvpgAyYLgOIG0tOQuh0VByD8cPwCNIqAOOAUsgEFhfB7wAUQEwgm4UHQRM2SVOjTZ1gBlYCkA8UAOQALbskgi4BmD0n0l6Sv0gKfid8lMchrwkz/fbrUipvFG4vwM=);fillColor=none;strokeColor=default;" vertex="1" parent="1">
          <mxGeometry x="428" y="1053" width="9" height="51" as="geometry" />
        </mxCell>
        <mxCell id="PrfleeTUdsi41c9WUQBj-53" value="" style="shape=stencil(rZTLcoMwDEW/hq3GsvyQ12n6H5kJKUwpZAjp4+9rxqWNDWjVnZF9sO6VrIoOt+Z0rSutbtM4vNYf7XlqKnqqtG77ph7bKa4qOlZ0uAxj/TIO9/6cvq+n+eS8ehve5z98Jg6VAqVmTKuvFPoNPCega/t/BhyQ2weCgeCy8+jBkgAgIGeAJiAhJXbg8xtIAwUBiNs2AwyC4X3AewgmA2xM0giABpWnZAM4wSXnStExIqXksBTtEawg2jKwzgErVtr60qVog/YCYMBgDvAS2Qai6z4HAli7Dxhf2soKnOCSMYC5aMbFhm1g1XyxWYKQEq2aj41YaVLAxQ3yA9K2fHDM4ITmw1CKDgqCUAck8JQDtNiwXbhSQnBi761GxsMU+QHi4m+oXdquSzPxcb8cgjGUBigdvwE=);fillColor=none;strokeColor=default;" vertex="1" parent="1">
          <mxGeometry x="416.5" y="1091" width="8.5" height="22" as="geometry" />
        </mxCell>
        <mxCell id="PrfleeTUdsi41c9WUQBj-54" value="" style="shape=stencil(fZTJcoMwDIafxleNLXmRz2n6HpkJaZhSyBDS5e1rxiWNaNHNyPqw9GsxtLueD5fGoL1O4/DafLTH6WzoySC2/bkZ26mcDO0N7U7D2LyMw60/1u/LYfacT2/D+/yHz8o5a8HaGUP7VU13w3MFurbXAQKXtoHswbPwdwjE2wB7QC+A8gK7bSBlICcBhqCElByEIFOIkJWkI0HKAvABmLaBEBZNFiB4VSUf1yFFp4ZEvA4pMvigAAgpCiARoCIrJgjyhZTUwpUyoaw034X+v5cYslSJi26oAB6izIEZnNatbklxAbIDq7XGWqRMqqolIDkMOYJVGsNBQumfICoZ/xm2h/n7Acrhd7pPbdfV5fB4v94GxVQ3Ce2/AQ==);fillColor=none;strokeColor=default;" vertex="1" parent="1">
          <mxGeometry x="505.5" y="1091" width="14.5" height="21" as="geometry" />
        </mxCell>
        <mxCell id="PrfleeTUdsi41c9WUQBj-55" value="" style="shape=stencil(tZXLcsIwDEW/Jts7tmzL1prS/2AGKJlSwgB9/X3NpKHYSdRuunNiHcu61qNxi/Nuddw0ZM6XU/e8eW/Xl13jHhqi9rDbnNpLXjVu2bjFtjttnk7d62Hdfx9XV8vr6qV7u57w0XMGxlwhMp/Vj8fefN8eNHOLFObNHWIozCNimjcXJCpP9yCZt7eEUF0nwbACRFgpAPJwdh4gAnMBOAtSIqYEsSWQBp/TEgXY0oMPSG4e8FTHEEhV1QuolJUNPM0DgYcQb4AuKztQKt9ZlzWaYXsAkkFQPEQetm8AwyoeEiGVHsRAogKkOgbx8F5J1tE7SByEngYYpgISWIkhn1cln4gqq4xe2hq9nu/2/xHJcX4r+ddAxlJFiKbtqNOIXkUp95rqSrcjpgFGLLX9LaEcQhlD0jtBFHAFBLVOJ4oityslZXNVVvmRfSat7HJ7rwpb7+AsiGUMMUCUd+BRR86AlkscwK4EqCq7vPgZd9t2v++n5f1+PR7zr360uuUX);fillColor=none;strokeColor=default;" vertex="1" parent="1">
          <mxGeometry x="174" y="868" width="16" height="18" as="geometry" />
        </mxCell>
        <mxCell id="PrfleeTUdsi41c9WUQBj-56" value="" style="shape=stencil(rVfbbtswDP0avx5IokSJz133HwWaLsaypEiz299PhqEsMmu6Afrmy6HEy+GhNNDD2/7pdTcE93Y5n77vfo/Pl/1AX4YQxuN+dx4v9Wmgx4EeXk7n3bfz6efxeX5/fZqQ09OP069phT+znYNzk1Fwfxcfvs7ww3j8RDghlTvgGXwPvED4Drj3kHgPPoHzOt7DcYevK/i0jg/w1OMjmNbxEWGxvsAbyc+IqU++nf2ajryoVkHxhkFq+W4GMSIbO9QUhdIZJIdspagSoN8hMXJYN6AIFzsDDmAxkuoQ+ypwhhhBx4Tc75ADyNghKV5khjdiSAkUegNBMbLEDty7VAKKwWyOKNIbJBTDJZbG5KtBaVG9zz1CXPSmIBkx5NLq2gyk0tFIa1GVlvrFaJ/qMfUuCSMY/SyheXw1yMhG0KKoIYJgBC2lCdBVYpwtqDf/P2qiN9nySoeR4YyWENVDQq3RP1i7LTolpH6H4kEWw5U0VUZ6gx266WqTeCMGrQN1iWBJU+363KulzT8tfmRnScsrVWWw2KSytDGC9IjYmHEFyfdszfBGCAzqI/ARYpVtWTVvV+0z8JY/2n9GNEihZrQvregr/b+U+mBPH6+kfqKV0czvkMg+Nmia1plKBusowfekiLauRiXEG62WlEhunAKSqkOdeNGIgbkdBW+GOluFDk2vbma0M1ya1ltM0GUd6sP/Y/3LeDjMt4Lb/8trQP00XyHo8R8=);fillColor=none;strokeColor=default;" vertex="1" parent="1">
          <mxGeometry x="214" y="801" width="11.75" height="16.75" as="geometry" />
        </mxCell>
        <mxCell id="PrfleeTUdsi41c9WUQBj-57" value="" style="shape=stencil(fZPbbsMgDIafhlsLbMzhuuveo1LTBS1LqjTd4e1HxKrFScOdMf9nbGMrOtza07VRqG/TOLw3X+k8tYpeFGLq22ZMU7YUHRUdLsPYvI3DvT+X8/U0K2frY/icI3wXToPWM4T6Z+V4LfIu9Qu5AfRCboF5X24hspAbAwEr4fPrMn7Ox1AFIDAyfyQIrgIECEYAlGuqlIAOLEkggvf7ADGglT0K1ZQsr/+A/aNvTwHeAC4nGfYBtwG8fVT1FMjXGAUQ6l0KDF62NeaPqwDRgncScMCxNhqbUV24/pBs/A/6JXVd2ZPl/XoxsqssFR1/AQ==);fillColor=none;strokeColor=default;" vertex="1" parent="1">
          <mxGeometry x="179" y="846" width="52.5" height="22" as="geometry" />
        </mxCell>
        <mxCell id="PrfleeTUdsi41c9WUQBj-58" value="" style="shape=stencil(lZTdbsMgDIWfhlsLMGB83XXvUanpEi1LqjT7e/sRZenibLG0OwPng2Nj2eDhVp+ulfH2Ng79c/XenMfa4IPxvunqamjGEhk8Gjxc+qF6GvrX7jyvr6dJOUUv/dt0w8fMWbB2grz93Gw8zvK26VZyD442cgr78gw+CHkE5/bljiE6oXcI1it20nJ8BwiSYggTRBbAZEkBAgHJAiFCUnKIDDYLIHjVEllw0lJ0kJUXiIGjAJKFmJRfIMgyh5QBcR9ghCgBimpbMIGXOWTdEvM26ay/4OyvTs0ZKP6LYL2wxVRIEghLv/8N5OVn70AE1gBaqnIHSn9lBSj3oQRYtxQBZWFXdfgmSvAzDi5N287TZH2+HR9lax49ePwC);fillColor=none;strokeColor=default;" vertex="1" parent="1">
          <mxGeometry x="188" y="785" width="46.125" height="90" as="geometry" />
        </mxCell>
        <mxCell id="PrfleeTUdsi41c9WUQBj-60" value="" style="shape=stencil(pZbRbtswDEW/xq8XkiiJ1HPX/keBpovRNCnStFv/vsy8eKXgsDD2Jsv3yKRIXWugm9ft/ctmSOH1dDw8bX6ND6ftQD+GlMb9dnMcTzoa6Hagm8fDcfPzeHjbP0zPL/dn5Xn0fHg/r/B74gJCOEMpfEwTKaKmPzN3k3437v9DHxHzGn2GJKuvYL6uZ5Ro9EQgcuJJiPYDmZCyAwhCM0DJCOU6kAqS/UItbgoacRIDMCOLs0cRQgYQBrXrQAl9SK2gBAfQpKsBYpgrv0hojkFWERzQbGs0zcIDCrKtRCNUJ20WiAWkITqARKRigYzqVEISuKtEvOzDMkBgWwkNkjwggzqgovgA29JxdttPtF/tkeaE4ANsd6kKsgdUZBtSJbTqANoItjW0IYsHzJs4A4ToHFJthGILlyvEAVoA216ihur4RlOj6ZwpITvOpM1MFlDrix6QkS0Q28U9l4FycYkZmJdYBjQAW7iG5uv/dtpc6EtOy3pGsuvrgXYcQPWlSwDi68Wur57j6aX/W/kWpvquAt/qK63Tt7BGr/Ym6/Sdo36r5zXrf/kFXAN08O9q8jjudtPN5uv7/iqjU9M1iG4/AQ==);fillColor=none;strokeColor=default;" vertex="1" parent="1">
          <mxGeometry x="112" y="1158" width="228" height="13.875" as="geometry" />
        </mxCell>
        <mxCell id="PrfleeTUdsi41c9WUQBj-61" value="" style="shape=stencil(lZXbTsMwDIafpre/krg5+HqM95i0jlaUderK6e1pKYINDyPfZZm/1L+PFW3O7e7UVMGdp3F4bF67/dRWdFeF0B3bZuym+VTRtqLNYRibh3F4Pu7X36fdYrmcnoaX5YW3lfPOwbkFC+59vaoTqP68uV+Jvjv+QzAim4jkwdFE5IASbERCIRNRanibV+wQbLFiAjsb4VGnvwlOSPlaRgRlBZCRqkFK/ooAIiMrLmVZIbrqKDSEAqekYn6P6ArwNZKSbZIuoRQlD8Kj7wdu2hvNZUPAW8x9RFHCI+yD3gvCe2I4rdtE+KOuN0igICqdQwJIumRZEXMVZkWzrLmsD6VkBbIECF7pzCI16IC5lVl+ISJ5y3Sxj9XMCIqIW4M4gI2jO6OYx2qxecUR3raCLq6+kPnws4oPXd+vm/zy/9+re75a1z5tPwA=);fillColor=none;strokeColor=default;" vertex="1" parent="1">
          <mxGeometry x="113.25" y="1154.25" width="3.75" height="10.25" as="geometry" />
        </mxCell>
        <mxCell id="PrfleeTUdsi41c9WUQBj-62" value="" style="shape=stencil(lVXbbsIwDP2avh7Fca7PjP0HEmVUYxQV2OXvl67ShimY5c1JznF8d8OL43Z1aBtrjqehf20/uvVp2/BTY22337ZDdypSw8uGF5t+aF+G/rxfT+fDakSO0lv/Pmr4nHiUEMzIsuZrukkB3v3cPE+EXbe/IGRkW4O3yEniGS7cxxsYaU9ksNf0Mwt88OBUgfeMpOj38NJ+VzTQfTxZmCwINqkfWEIKgkC6B+yQpEkeMd7Hu4hMAv8b45v44EC5Ah8jLFXYkw2sTAFFNaQ5IDpBYKP+QGZWRS6AlCTcYAS9TnN5llGKep5Ln1x1QgmElud5XLPuRIhwMk4Xbt0u7ogQqxjzYsoJRvHCEZyp8YIJQZZH1juu9BdLJ1JSU1fqk+pm2KxFHxDIwdYRZlPjEaF2bv+DUIS/NbHpdrtpy1y+X6+VcjWtJF5+Aw==);fillColor=none;strokeColor=default;" vertex="1" parent="1">
          <mxGeometry x="335.2857142857142" y="1155.375" width="3.8392857142857792" height="6.5" as="geometry" />
        </mxCell>
        <mxCell id="PrfleeTUdsi41c9WUQBj-63" value="" style="shape=stencil(lZjJctswDIafxlcMSXABzmn7HpmJ03iaJpkk3d6+UD1UTUj6Fd9sGZ9J7IAOfPP2cPtyPKTw9v76/O3463T3/nDgT4eUTk8Px9fTu3068OcD39w/vx6/vj7/eLo7f3+5nSSnT9+ff07/8PvMBQphglL4c36QhVL99+TLWf7x9DTIx+LlC5CPlHmQL4EUyDPlOsoXYt6Wz1TyKN+o6LZ8pSSDfI0UgbxQHO9fC6UM9DWD6ggolQSASDpq0JiqAMB+TiPQiIEKsVAYAQndK+tApTheSZhCBECj4IDS42QLaG0EGkWktFB2JwgpApTCGEgaqKJAVW9WTcRAhyl1Rh2USYFZDSjuhAIdZ4DGEahU0QmReMxmNUMjHWL/eQakJ9Q6YDZxV1JKIDQMUPYA8oNVgLY4QZCVMtURiGGuautEWbh654hKTa/SWiiId0RGgFJ2AJMAgKMv3DKfuQ4kKi7lLCFAbHD2VaBFGBtcSEaz7tRWtlI96mDNISEd1Fdje8INdAdTcdTBDM0g+nLsVWUGzNCo/1hlHDMoZmrASgbIGEtTywCezrk32NmspEjn0v9utmovhVvyefQCdz9uyTdnU1IkX30upB5YW/LZ5XOfCbbkZbx/6Nm6Lt8oFSef0P2thFYnj6qLDURZnTwjfS0ixemL+o7lSB7vz7DXluiLV4EBWnhRiiiC+LQBzddf7k/WAfHzyNSsAVBDH+nmCMokICSqWWSsdRxgTNtQV1xhqd3K60DzXcoqR0UnqM9ii9sIACu2Lm0sUBT4rSVfr0vq1W8LcK25ZDjL22Dqh+0CU61lXxyLmRXULgPaGBo2zqPy2xat3IAMWkhbtPIpHJGVZGFW6ZdcB7S31Rkw34PwlrjYSQIchsUcFzwgIFold6tfdOYCzGrjuzgg9b1mHWje0wag6WKaVpwOlrSgrBrQ2ANoMxQb0dQDGXjagHoVYBuFK2Q7OhjA1VsJbWIGNGcla4Yg+HSeVi6CD+3bOv/fB/PBABcaO0VgWqPG8LYOg4ZnA9SlaIAJZKNycS8lGhxJNPeONgMFVj4DXJmxMQ4lkG12bjmcJkt0QvEvPmx2FXyCFA9Ax9U+jF8MzxVFa/VVY2fa1sUkZgB6mWRLUVhcaQfgxZV2gHbtldwCsAdID+aPA/mqJcYA11D2HCd+ETMAjT+2zYbrYslUbB5ISIfFfjutZiinlZoDIlxjLpb+TcI+/H8Pen96fDy/Rr383b83tUfnd678+S8=);fillColor=none;strokeColor=default;" vertex="1" parent="1">
          <mxGeometry x="117" y="1110.375" width="223" height="111.125" as="geometry" />
        </mxCell>
        <mxCell id="PrfleeTUdsi41c9WUQBj-64" value="" style="shape=stencil(lZjdchQ5DIWfZm5VtuXfa37egyrCZmpDQoXALm/PmRrcROru05m7ScefbVnSkeyTvvt+/+nb3SmF7y/PT//e/Xf+/HJ/0venlM6P93fP5xf8OumHk7778vR898/z04/Hz9e/v326jLz8+vr08zLD/1cuSAgXKIVf1w8xLJ8+XoGH86MBNBlgDEl5f3ySbBcYWULbH19F7fheJKT98V1U7fggVffHxyglGqCptEGALL0ZoFapxILYJVqgDOlkSylKrBZQ6YUAKtU6IQ/qtFRE7Qq5TKu2gSo5WyDPL9tAk+AA5Ss0Sd2v8OcY9gAXSQAaO9YmJd1kdJPhbMAUnQBd2soPndigwZ9SSTJI8GmU5mKpSiOeVl1Fa5BBjNYqyQFFCjlW7TNdlgSCJpAVchR1GZelklhC5BSb063TnIZf1cZSTxJIAuXlEBcgz5TaBhAI1nGQpcyMbtKzX4FuqUm1W2pDMgkN2OCitcFoEq0AXPBVBB+J1rwo7xJ8keoSHOcTKEwt3AaSj1akVIo0lv5sYKlXVToHooslqexUw5TqZQGaoOv5efnE+NHc+IMjTXb+PPN1e3xexR2tPetMiMqDAulvF4hjen0TKNAfuwKq0SBbQvGLNuyggoP4uBSJdgVts0vZBhAzVsIQiCxOS5dswy5XWg5R8ZvVPBxDJABU2qnqQQ9QURnslmDVIOmPZM83tSVVJVgbMEUkfgCQbazWPD2zBzQH8NoDYNzUi2EDydnQqF4AcJ6uqD0kHwBUZ8OYfcce4DQP9TMQicGZxBVAt1RW9TPQFMUhOk+3pUveA5zjALAm+u+pv3WF4UXg4JTwb6dLtVE/oFq6ko7o6gzIvgFFAiXih1b9XalgCrYCbg6uJ+Z9PVqE7npi3nX3uNLWQaUSjVS0uqRl6vk2ANWwoaF5TrEHOCE7ArJo8VtSohoAnNwf1Af0dq5jxSlVZnTx6n1QUHr1unRptkg+AChWBFCII6kPAIb1A5q3ROpDx4XMVaBMrxoAfI3rM7q2ge57JRSxQnQJQHXqXehjQx9TI96o3gCqu8zwJnoEyU7IoLbklEb0CXRwmRmrDrEH2v6M5G1A0lJAvQ2XlGJbwtXFPh8c3H4AuIsxwrGyLZWppAuA6z5xHAAn9wiWwGyo/pEFABMBAO754BKOzNPoKvtNQPNyfwz4W+gh4G8DB0CfXerbAX/1PgTqbcfafY07BsZtKwx/MT4G4m1bQqOw2lInNQ6Aui0NWlDGWEXr4Ak0/HsDgEa0FUCzCQQtVJLTr16SXxHdiCt+/H2Z/nJ+eLg+bL/+v3/JxqfrK7h++A0=);fillColor=none;strokeColor=default;" vertex="1" parent="1">
          <mxGeometry x="125" y="1115.125" width="208.5" height="43.875" as="geometry" />
        </mxCell>
        <mxCell id="PrfleeTUdsi41c9WUQBj-65" value="" style="shape=stencil(lZPRboMwDEW/Jq9WYofEPLfdfyCVjmgUKkq39e9LlIetRljizQnnmusk19Dh3jW31qC9z9P41f6k89wZOhrENHTtlOalMnQydLiMU/s5jY/hXNa3JpO5uo7fucNv0VmwNovQPsXGR8H7NOi4i7tw73bgDiztwsMe7wgxaHj1jntgZVSS3Rm8YoZld0cQcZt3QQqyQd4W4FqgOyKWE1CAWrFUrQ7UB/V6A0pLlf6H6KUgMDivnCpDiG+CyMD1tqCOq2tjQGUGZ9evzsrMLMVf3i6p70tc/3+X+Vy2Srbp9AI=);fillColor=none;strokeColor=default;" vertex="1" parent="1">
          <mxGeometry x="128" y="1114" width="25" height="195" as="geometry" />
        </mxCell>
        <mxCell id="PrfleeTUdsi41c9WUQBj-66" value="" style="shape=stencil(lVRJbsMwDHyNrgRFWts5Tf8RIE4t1LUDx91+XwlG0cJKifJGUUNquGgMH27D6dobwtu6zM/9ez6vg+EHQ5SnoV/yWizDR8OHy7z0T8v8Op238/VUkdV6md9qho8tDgGxBhF+7hyPG3zMkwyvp3/DLdiggDN0muwOvNeQQbBWg/c6OtQBqaplIKfAdwQxatpDEDT5PQFrdiEgRE29IUBkBT4yoDAvArfDe3ACH9fkj5CE+YZ9/oTQCf20DaFkvz33C2gqTmUC6e8AbgPKCgkr0bWUyo4Kf8Y1TUoOSBiabwO8SCm2NZRGC2NI7QsJUKBk8c7P38tcMX4k8pLHcVPY3/d7SS2uTY75+AU=);fillColor=none;strokeColor=default;" vertex="1" parent="1">
          <mxGeometry x="190" y="1116" width="5" height="154.5" as="geometry" />
        </mxCell>
        <mxCell id="PrfleeTUdsi41c9WUQBj-67" value="" style="shape=stencil(lZTdboMwDIWfhtujxCaJc91171GpdKCxUlG6n7dfULStocVT74zxZ/vY4Io353Z3aioy52kcXpuPbj+1FT9VRN2xbcZuSlbF24o3h2FsXsbhctzn59Nujpytt+F9zvCZOWsMjJkxMl/Z9et4zkDfHf8DyD4EWHBcByQihiLewwUl3iAs8htEtw54D18WsAL264AjeC4ACvBKBRb4sqXk0YZENZwvgDr+1Lw/VQJJOSQLqwAMZ4v4YCGKhJulScpfKw0huDJeUCtbCzBUxMfUofJV3AqOHkIKEMGlgigI2g48eNFShBNlpAzmJSCKBo6wpYarn+MuUTPEP1LCGYjoIpLxdw0OXd/nY3L9fnk9kitfHt5+Aw==);fillColor=none;strokeColor=default;" vertex="1" parent="1">
          <mxGeometry x="254.875" y="1113" width="7.125" height="158.66666666666674" as="geometry" />
        </mxCell>
        <mxCell id="PrfleeTUdsi41c9WUQBj-68" value="" style="shape=stencil(lZLdDoMgDIWfhtsGKIhcO/ceJuokc2rU/b39JCybSmDZXVvOR3OaQzCbmmKoCKfTPPbn6m7KuSF4IJybrqlGMy8VwZxgVvdjdRr7a1e6fiis0laX/mZ/eDiOUQqUWozTpxt9BkcHtKb7BUgWBlJPLyCJLJAKmNjomQTbBgFvAWeQijCACuQWQAZahwEuPQsIGDsS32+QEpgKA56FJAEt/9ArBSLiwNOnGkTEgKfXCajIST39KiZvYCm+IaxN27oMr9/3oV1GLvCYvwA=);fillColor=none;strokeColor=default;" vertex="1" parent="1">
          <mxGeometry x="304" y="1117" width="1" height="130.5" as="geometry" />
        </mxCell>
        <mxCell id="PrfleeTUdsi41c9WUQBj-69" value="" style="shape=stencil(lZTdboMwDIWfJrdWYufP1133HpVKBxqDitL9vP2CEFsdjUy5C+F8wTk+WNHh1p6ujUJ9m6fxtfnoznOr6EkhdkPbTN2cVoqOig6XcWpepvE+nNfn62lRLqu38X054XPlNGi9QKi/so3nVd53g5AbUyV3tkJugKlCTkA1tTsIrkLOYKpqJwi5NcEW9Aw+CL0FW9BjAC31BsFxwR0HHgWQDAuFG1gLMQqA/Obw34ZawOwK6VK0D3gCKz3yCOz3gYB5PEO5pMDgZIRiBOP2geg2TzaAy19gDeRlH/Q/QSLwro5wwFlRERwWgAAkw5qOcAVj03kow8HlNCUgyF7Hcq+ZAWWvowc2RcBLY2P5j3hw8YfI45QWv5Pv0vX9Ojgf3+eTMm2tU5aO3w==);fillColor=none;strokeColor=default;" vertex="1" parent="1">
          <mxGeometry x="107" y="1137" width="295.5" height="16.875" as="geometry" />
        </mxCell>
        <mxCell id="PrfleeTUdsi41c9WUQBj-70" value="" style="shape=stencil(lVTbbsMwCP0avyJsfOO56/6jUtPFWpZUaba1fz+iPCxEiqW8YXwOHMDY0OnRXu6NcfiYxuGz+S3XqTX0ZpwrfduMZRLL0NnQ6TaMzcc4fPfX5Xy/zMjZ+hp+5gjPhYeAOJMcvjaO9wXelV7BLR+AWyB/AO4hxw08p314BqujEyBVxBCwFp8g5H28qI9O4a0H4n0CIaSsCFKR85V6LaDOQAGi3ScEu83gE6RKzdFB0PONWM2QHHgtSTy1DBmBNSETUI0gXddjYwlRkcQiyWpCBFcjSBN1lziDr0xarkPQk8b6S2WGZI+kWAVcVcHqdYvxv6a30nXLlq/vt2struVLoPMf);fillColor=none;strokeColor=default;" vertex="1" parent="1">
          <mxGeometry x="131" y="1213" width="344" height="16.5" as="geometry" />
        </mxCell>
        <mxCell id="PrfleeTUdsi41c9WUQBj-71" value="" style="shape=stencil(lZTdbsMgDIWfhlsLMBh83XXvUanpgpYlVZr9vf2IWLW6K0i5c+zzEQ4YK9xd+sO5U1Zflnl67T7TcekVPilr09h3c1pypHCvcHea5u5lnt7HY/k+H1blGr1NH+sKX4XToPUKWf19l3gu8iGNQh54g9xDMEIewIa63OC1fNWbCCY2gACRBJB/2dpQLpP0iw4014Fc9lYAzoPzdcA5QC8ATxBt44wcGGmaPLCpA4TA8hJC23SwwNJDNM0tRQ0kPUQCpAZAwPJYYwRydYANkDTNummaPVi3CQhAdhPAYGSzMrabT/97PJnghutHRLubHhA3qV8kB3/P+5SGoUyH2/r9OMipMkpw/wM=);fillColor=none;strokeColor=default;" vertex="1" parent="1">
          <mxGeometry x="121" y="1214" width="42" height="5.5" as="geometry" />
        </mxCell>
        <mxCell id="PrfleeTUdsi41c9WUQBj-72" value="" style="shape=stencil(rZbbbsIwEES/Jq8j2+vrM23/A4lQolKCgN7+vo4itcDCqJb6Zpwz2LO7XruTxXGz3PedM8fTYXzpP4bVadPJQ+fcsNv0h+FUR508drJYj4f++TC+7Vbz7/1yIqfR6/g+/cPnrLPGwJhJ5szXPPUz8TQLtsPu3wU2NQkcJDQJPAIRlIRwyWeESHh3zVsPU+4LclAODLK9L0hakOHIClEJJELICkF58B4i9wVeBTVYJJJop6IaqgdWGUoQhZq2aksxomRiWvEFnpSeilGycCSoaj/JwRPHmhcI2Y/mPTwpVM0HpCY+QUg8NV/gSA0pPluaYM0LPDnImg8ILfnK1W9LfHKm9ab4wlvdLb60xLNYWs+adzCujWeNUfMC21L/lU8t+S2eni91fkuAJftX/aFEWBJ/1bDqTWJJvemGVQWZ3X3aQb2aSMastlBgiOWbAmFNNyKmC8HZffv3JVhZ3whT7SsX56wOfp8w62G7nV9A59+vnzx1an4uyeM3);fillColor=none;strokeColor=default;" vertex="1" parent="1">
          <mxGeometry x="350" y="1127" width="5" height="115.33333333333326" as="geometry" />
        </mxCell>
        <mxCell id="PrfleeTUdsi41c9WUQBj-73" value="" style="shape=stencil(lVTLcoMwDPwaXzW25JfOafofmQkpTGnIEPr6+5q6pTEe1MlNiF3jXS1StLu2h0ujUF+ncXhu3rvj1Cp6UIjduW3GbkqVor2i3WkYm6dxeD0f8/PlMCPn6mV4m0/4yDyM4MLMQv2ZOxq0/m48Znzfnf/BW7wHb4D4HrwFsgLeQ+ACnxrSfQjQlPfREPw2wTB4WxIccBQIHnSpABHICAQEp0sCgxM8isBU4CmIHjkgX1rqQAvnm7WlLgkI2/glMQs+QhQsrfDegpUcrUbMgMKMK70hDV0acUpAmYmQQiQYasKvvoXAYibqlEYC47YJaaKrTEQPSILmytSYTBI0+Cp1jGIqQvXnsAUnfCG6ta0cwAo5Yg+2DDazGDyjK9U3rR9KKv6W36nr+7w7b9+vl2Vq5UVL+y8=);fillColor=none;strokeColor=default;" vertex="1" parent="1">
          <mxGeometry x="95" y="1113" width="7" height="158" as="geometry" />
        </mxCell>
        <mxCell id="PrfleeTUdsi41c9WUQBj-74" value="" style="shape=stencil(lZTbbsMgDIafhlsLbDDxdde9R6WmS7QsqdLs9PYjQukCG0y7I+b/jE+xosOtO11bhfq2zNNz+96fl07Rg0Lsx66d+yWcFB0VHS7T3D7N0+t4jt/X06pcTy/T2+rhI3JGa9B6xVB/RtPd8BiBoR93gDTA5j96B9gkegTLZX3jQdJ4BNhX9Agiid5YYCwD3uUJh4jIlAFmMC4ByICzZcAxWEwAWwcsA6UvuDpAvNVwA7ieA3rgNGn/B6C36w1o6n0OVXdpn5t73X4HNKBNG63BVzrNIJm+3ugQUJqBBA8VfRiktAlh1GuTakAy/wJIZb0GoVxvpabPhmL3rxaAbLB/JBAO34vg0g9D3CP7+3xxBFNcOnT8Ag==);fillColor=none;strokeColor=default;" vertex="1" parent="1">
          <mxGeometry x="50" y="1162" width="72" height="16.25" as="geometry" />
        </mxCell>
        <mxCell id="PrfleeTUdsi41c9WUQBj-75" value="" style="shape=stencil(pZXdTsMwDIWfJrdWYuf3eoz3mLSOVpR26srf25MSBMssXCrusjTfknNyHCvaXdrDuVGoL/M0Pjav3XFuFd0pxG5om6mb80jRXtHuNE7NwzQ+D8fy+3xYVi6jp/Fl+Ye3whmtQesFQ/1epnwCpM+Z+0L03fAvIjkIqQKch4QCoCHFCrARjLBDTGBDDQTwSQA8RLsJsICmBmTR0YCrNTgEMr8DIUJyta3fRv8VkI/Egbh1h+ybcQLggXAL4CNY3HIkFyCmLaLzvVIdDUcQhSMRiwbJaUUmGvPdW6GCWD3I2XOAvlouW8TKU16O4KkONnhBLfPfyHZysStqkcDfFL9sJ/FKW7lh9lp4WTPPUJB3cMzUKGvgsY4rmWBAfjRD2AJcPeRfRB789IlT1/elzVx/v+0rear0JNp/AA==);fillColor=none;strokeColor=default;" vertex="1" parent="1">
          <mxGeometry x="115.25" y="1155.375" width="4.75" height="8.125" as="geometry" />
        </mxCell>
        <mxCell id="PrfleeTUdsi41c9WUQBj-76" value="" style="shape=stencil(rZXbboMwDIafJreWHefEdde9R6XSgcagonSHt19Ytq4BzV2k3hnHX+LDT6J4c2p2x1ppPE3j8Fy/tfupUfygtG77ph7bKVqKt4o3h2Gsn8bh3O/T93E3R87Wy/A67/CeOIfAYaY0fiQPAuKX4zHFd21/13giMFwCaAOmKgFYAxkB0KBdBhgNwQmAAzQZYG8UXUGgHGCw/m/Ax+VQcoL3wEU1BAbUJV0KAdxiDlZMqTLAeZfIgBYGVwWgvEtykwgvPfmf9u4ByCmtSyAETwKAP/tdAC/PjYC4BFhr7wZgHTgsAQyDKQKi0nAhJfkOiGPyNgeCLA0CXqjbinOw4Ba/jxMzWunCEVSCklbxQc5nFX8lxW8gGr+X+KHtuvQGXK8vL/3oSg8Gbz8B);fillColor=none;strokeColor=default;" vertex="1" parent="1">
          <mxGeometry x="332" y="1157" width="6.625" height="3.5" as="geometry" />
        </mxCell>
        <mxCell id="PrfleeTUdsi41c9WUQBj-77" value="" style="shape=stencil(lVfbbtswDP0avxISKYrUc9f9R4Gmi7EsKdJsa/9+9IxlpVAz1ZsjnyPzcnjJRHcv+4fn3YTp5XI+fd/9nh8v+4m+TIjzcb87zxd7muh+orun03n37Xz6eXxcfz8/LMjl6cfp13LD68pLkNJCwvS2HmCDSn9Pvq74w3x0eMIRfIZGDk8I3LbxBaq/v2RA2cZXoOLxdpK28Q2yOjyX2H7sDaoEGjiQ7fvVEYQg8zbBQorNERSh5IBQALMnNNCIoJC8Dy0OEmWoPqqtQQqyQAWadzqnq7I+ZphNQ58oCVRHnCgE3H3BTjAgVEhDcS0KJJ5QIQcETiA+ETdSzdjHVRQkcJoZsq834TAPLIDsCTkMKzdAH9YqYUXX3Ou7Xr36mEBA3iS2QAc1WhmKj5LFTTQgmMU+cTe6RrUm532gWBoWRPV9lSj0wZpE8+Kz1qZB2xBTq880xokz5SRfQNaqalBxmnot5ThxJuaeYFcE0tDST5840cognVjD8lF7XUbwre8AMb6lXng38BmERvAIKiN4G00j/rbr7PsknvvKvInXNoK3KtQxvAz5K5DTGJ4G72ccw8tQfgXaUPz1X/l9Gt8NtAol6KOGr75eGDhoEIZXb3+8fC0rQdd2w+ln+C5f8RwwfPV6sFkV29PtIPGS824J2iLYw//V/Gk+HNbN/v37fpW3o/VvAN3/AQ==);fillColor=none;strokeColor=default;" vertex="1" parent="1">
          <mxGeometry x="241" y="1320" width="207" height="13.5" as="geometry" />
        </mxCell>
        <mxCell id="PrfleeTUdsi41c9WUQBj-78" value="distance, eta,&lt;br&gt;&amp;nbsp;speed&lt;br&gt;" style="text;html=1;strokeColor=none;fillColor=none;align=center;verticalAlign=middle;whiteSpace=wrap;rounded=0;" vertex="1" parent="1">
          <mxGeometry x="273" y="1320" width="167" height="60" as="geometry" />
        </mxCell>
        <mxCell id="PrfleeTUdsi41c9WUQBj-79" value="" style="shape=stencil(pVbLUsMwDPyaXHdsS37ozOM/OkOhGUrLlPL6e5QJDCgm4sDNdbTyriSvO9DF027zuB1SeDqfjvfb1/HmvBvockhpPOy2p/Gsq4GuBrq4PZ62d6fj8+Fm/v24mSKn1cPxZcrwNuMCQphAKbwvNq7n8P148MIjqhOekMiEN8S8Hl5Q2GZn5LIeL8g2faxotB6v6aIYgDIUD9CdoAqKw0glhGwAxCBZBxCBLSWSr51fARxRLCXWInmATkMOoLQOyBVs25AzODptYxQrugRkB1Aj2I5RKUjsACokGoCmkLoOaF1ZNUV1KLXuhCmFQ0k6Da0he4Bu+CSBvOnWmjQLyP4JnQZpCM5oiCBUCxCfkqBaQAy+Yfz4/g+I6qjONZVuxLUU7BiN5qOFcIY4nLQXeVHaiNAcAKEmOx4Z4vWiE90CkqNB80V7Qk0o3q3rmlcIxaFUu0uUGdURrbdY7MRyRnKsRn1CbOOogBwN6kRkreYPQ1avYyt6epQ8u1TGixHPPiCiFQtQa3Ao8S834ssaPgG6+H6wb8f9fn7vf35fPvC6Nf85oKsP);fillColor=none;strokeColor=default;" vertex="1" parent="1">
          <mxGeometry x="285" y="1279" width="53.75" height="19.625" as="geometry" />
        </mxCell>
        <mxCell id="PrfleeTUdsi41c9WUQBj-82" value="" style="shape=dataStorage;whiteSpace=wrap;html=1;fixedSize=1;" vertex="1" parent="1">
          <mxGeometry x="630" y="30" width="100" height="80" as="geometry" />
        </mxCell>
        <mxCell id="PrfleeTUdsi41c9WUQBj-83" value="" style="swimlane;startSize=0;" vertex="1" parent="1">
          <mxGeometry x="350" y="10" width="430" height="460.33000000000004" as="geometry" />
        </mxCell>
        <mxCell id="PrfleeTUdsi41c9WUQBj-85" value="" style="swimlane;startSize=0;" vertex="1" parent="PrfleeTUdsi41c9WUQBj-83">
          <mxGeometry x="5" y="260.33000000000004" width="400" height="200" as="geometry" />
        </mxCell>
        <mxCell id="PrfleeTUdsi41c9WUQBj-90" value="" style="swimlane;startSize=0;" vertex="1" parent="PrfleeTUdsi41c9WUQBj-85">
          <mxGeometry x="200" y="-0.3299999999999841" width="200" height="200" as="geometry" />
        </mxCell>
        <mxCell id="PrfleeTUdsi41c9WUQBj-89" value="" style="swimlane;startSize=0;" vertex="1" parent="PrfleeTUdsi41c9WUQBj-83">
          <mxGeometry x="200" y="60.33000000000004" width="200" height="200" as="geometry" />
        </mxCell>
        <mxCell id="PrfleeTUdsi41c9WUQBj-84" value="" style="shape=stencil(pZjbchoxDIafhluNbVm2dZ2m75GZkIYpDRlCT29fMXRJLMFPZ3q3LP52dfxl74rv3p4fXterkt4O+93X9c/N4+F5xZ9WpWxentf7zcGuVny/4run3X79Zb/7/vJ4+v36cFx5vPq2+3F8wq8TlyilI1TS79ONnM63Pp+A7eblf4BMhSdAleq4vl4oyby+k8r19Z2azusbKbInU3cGCR1/XgUasbOIIWAueyCRMgDCG8aAMeJM2QECg8RCeY7SYBIQJR5U+gxYIvU6UJN/Q1di4HQNPnRLZYaAi1JvlCs0SdsMVBoYcMXdmRoK61j+PgOFBAFWm2UGMlUQVkucNykRo9Jgn7imVFCmM0mdgU4DmRSi1BpV1A8hSs3y0AEQerqZVyBxBuQ5rM28arDjXB5EodPxDWIdAqo1+iBtCfRlQCnNeZAKhYxDeQsvWnutNFwexKIEfLBqdVJZlToo79hAdcDhUJnq7ENtsFprNKlSRYBSmxNXy5KZy/Mn+9Iw4UkgShLCygq11fLqTDIdyegNQb0tM6haDfirEWdAqKOhGwEslReBGz544Jz7fwXKkplrgARAMNC7B1ADGeA6zsRTUR6an3EGDGRS2AkY0DDg1NsANHYlNNBRR/AbXD8YwEAEImDSJqj4IjBIcFg90InBQLkACNTWGKVSiVF5h8SVgn0IxVdu5CGIQLYNFgKCzGQb7MiH6idQxoNdgnpnMxL1NFOaWzTXW9rqARMBDIw5D7bfh04H1cgJd5wFcQYUDqAWxrSJPajVFtKGzzMt7K6sskAObIfq7K/UwfN72PkwfP5IQVUpgXiOMD4L3BGPoKllMfDy+pCvvNy4vF79gdUOjOD5Gg4+GTa+hvjgTZiGc5KdGIDAazjfZijXWhZhe19fQH1qqB8zEMRTo0hQAvWjQYWsgdDzQ78k2C8adDTBkaxh6FsCwc5Iw0RO8Aypob8SCYp/OFgkquj54SSf4Ky09d3bA+sh9EuCM+DD96J3YD4j2MX796qnzXZ7+tz18X//fctunb6N8f0f);fillColor=none;strokeColor=default;" vertex="1" parent="1">
          <mxGeometry x="240.33333333333348" y="290.3333333333335" width="108.33333333333334" height="510" as="geometry" />
        </mxCell>
        <mxCell id="PrfleeTUdsi41c9WUQBj-86" value="" style="swimlane;startSize=0;" vertex="1" parent="1">
          <mxGeometry x="149" y="260" width="200" height="200" as="geometry" />
        </mxCell>
        <mxCell id="PrfleeTUdsi41c9WUQBj-87" value="" style="swimlane;startSize=0;" vertex="1" parent="1">
          <mxGeometry x="159" y="270" width="200" height="200" as="geometry" />
        </mxCell>
        <mxCell id="PrfleeTUdsi41c9WUQBj-88" value="" style="shape=stencil(fZTZjsIwDEW/pq9Xdpz1mWH+A4kyVMNQVGCWv59UFYuL6rc0PTfxtR03sjrvN6e2cXS+DP1n+9NtL/tG3hrnuuO+HbpLXTWybmS164f2Y+ivx+30fdqM5Lj66r/HE34nHYFoFDn6mzaY7lvvk+DQHS1BKRBe5hmpaD4ipmU+oCTNE4pb5jNKVHyOKNmIR5BZCwjRMMwFXjtOAjZuqBZSUIIY4GRZIA5eewgJZAnKLYCbwGckw4OvWdUePIOMrAZG1mUQDzFMjxHrOtfKJEMQGcVrgYczQooR3mkBmZ2XCEELuLaGkdZUA9CFq81iCjJEF44ZYgiym2cpIweDD8jaQn083uBfGwOxLPPl5XU6FIv387fA9vn3cG88mU1RMlhmvIsmn/OMZyP/dVYFmvHWsHsahg9BMJq0BhR4lqCgDNTFYxbvusNhGuXP/+ezu25Nc1/W/w==);fillColor=none;strokeColor=default;" vertex="1" parent="1">
          <mxGeometry x="408.66666666666697" y="290.3333333333335" width="55.833333333333336" height="160" as="geometry" />
        </mxCell>
        <mxCell id="PrfleeTUdsi41c9WUQBj-92" value="" style="shape=stencil(lVjLctswDPwaXzF8gCB5TtP/yEycxtM0zjju6+8L1ZVdAtI6vtkSVhTAxWKpTb57f354225SeD8e9l+3P3ePx+dN/rRJaff6vD3sjvprk+83+e5pf9h+Oey/vz6e/r89TJHTr2/7H9MTfp1wgUKYQCn8Pl1ojZr8vfL5FP+yex3icx3jO4W+Hh+p9SG+B4pxPb5QaGN8pFzW4ytNt8b4Dp4fA1UZAQkmHHm+fQZkvEKnxCNAH1HXASlTLSOgUGUAaBTzCBDivA7IiWKxgA6qmgux2bZKOQCAvpIDCFiBA6VmAaisrEwygAaZx5mSWEACO81Mxa2AyspCgS1AUA6VSrWA2gDAc6lRBzmUQN2s0OeXXAYo+4sFRJB0YardAv714DJASIIFIC4VT+8rAL0dbwGIJ98VQHQ7fRUgbh8gwLeoAgC9FVBd0gy4JL4fOhXAJQVY7e6wp0UbyL0SEjJRtXdVaoB8ChD3Skg1RCiNZY3hPPLWEJVvQ1QK8VaEmVofQGS5FVFc28FSqWA7jsPdqwsMhJSts9h9UM0UYMWpQTeggG7sAB5DojPENIVARRY/6Ao1IH8KYLMPfG0FMWXN13KwfZpmyV0G+KkSsRJ019hhvrIGMENCbWIGSddglUB9aASvpAAed7rpnMErGOPXVH2A1tRIcWRrUwUFZa1O85tOY9BANVkZqG2eAsuAbCdj5TmrZQATjzutZSioSmKTniQX0Lu6Ya3DNYKktSZp5JI6CgZlbclKHzfI1uaS5gRbVJmTR7bmOrNrGaAyYwBpFs9lgHqqkRrq4QWQTwHm1KEnowwA3fVDSrPJWQMYp6gHlwySnjRi3Omopw7A1u4sTVRHAarUnReNkRJKOlupVDsNqNQdMwSOE5V24xMZniA03tQ0zTq4HC+upND+dO80oFfXeB6fH+D5pLt5G3B93DAMM8/X4rmaeORhptORfR905JvOOjZfuF9uEKo6ohY4D7FLPPIvkyM3XhJadB+fruVr5nLC/O/2hJuhYbv4/Ut8x/Wpowgx5o+zCYz75exgz7NjJuDKxx73eavADVgEyLDD+uPyLe1p9/Jy+hT3/3377U0vnb7b5fs/);fillColor=none;strokeColor=default;" vertex="1" parent="1">
          <mxGeometry x="358.66666666666697" y="75.95833333333337" width="300" height="239.375" as="geometry" />
        </mxCell>
        <mxCell id="PrfleeTUdsi41c9WUQBj-94" value="" style="shape=process;whiteSpace=wrap;html=1;backgroundOutline=1;container=1;direction=south;" vertex="1" parent="1">
          <mxGeometry x="53.88" y="1383.88" width="60" height="66.13" as="geometry" />
        </mxCell>
        <mxCell id="PrfleeTUdsi41c9WUQBj-95" value="Actor" style="shape=umlActor;verticalLabelPosition=bottom;verticalAlign=top;html=1;outlineConnect=0;" vertex="1" parent="1">
          <mxGeometry x="20" y="1383.88" width="30" height="60" as="geometry" />
        </mxCell>
        <mxCell id="PrfleeTUdsi41c9WUQBj-96" value="location service" style="whiteSpace=wrap;html=1;aspect=fixed;" vertex="1" parent="1">
          <mxGeometry x="246" y="1380" width="80" height="80" as="geometry" />
        </mxCell>
        <mxCell id="PrfleeTUdsi41c9WUQBj-97" value="" style="endArrow=classic;html=1;rounded=0;entryX=-0.037;entryY=0.354;entryDx=0;entryDy=0;entryPerimeter=0;exitX=0.883;exitY=0.401;exitDx=0;exitDy=0;exitPerimeter=0;" edge="1" parent="1" source="PrfleeTUdsi41c9WUQBj-108" target="PrfleeTUdsi41c9WUQBj-96">
          <mxGeometry width="50" height="50" relative="1" as="geometry">
            <mxPoint x="300" y="1360" as="sourcePoint" />
            <mxPoint x="350" y="1310" as="targetPoint" />
          </mxGeometry>
        </mxCell>
        <mxCell id="PrfleeTUdsi41c9WUQBj-98" value="REDIS" style="shape=cylinder3;whiteSpace=wrap;html=1;boundedLbl=1;backgroundOutline=1;size=15;" vertex="1" parent="1">
          <mxGeometry x="408.67" y="1376.95" width="60" height="80" as="geometry" />
        </mxCell>
        <mxCell id="PrfleeTUdsi41c9WUQBj-99" value="" style="endArrow=classic;html=1;rounded=0;exitX=1.004;exitY=0.346;exitDx=0;exitDy=0;exitPerimeter=0;entryX=0.005;entryY=0.401;entryDx=0;entryDy=0;entryPerimeter=0;" edge="1" parent="1" source="PrfleeTUdsi41c9WUQBj-96" target="PrfleeTUdsi41c9WUQBj-98">
          <mxGeometry width="50" height="50" relative="1" as="geometry">
            <mxPoint x="300" y="1360" as="sourcePoint" />
            <mxPoint x="350" y="1310" as="targetPoint" />
          </mxGeometry>
        </mxCell>
        <mxCell id="PrfleeTUdsi41c9WUQBj-100" value="" style="endArrow=classic;html=1;rounded=0;" edge="1" parent="1" target="PrfleeTUdsi41c9WUQBj-101">
          <mxGeometry width="50" height="50" relative="1" as="geometry">
            <mxPoint x="370" y="1410" as="sourcePoint" />
            <mxPoint x="370" y="1500" as="targetPoint" />
          </mxGeometry>
        </mxCell>
        <mxCell id="PrfleeTUdsi41c9WUQBj-101" value="KAFKA" style="shape=partialRectangle;whiteSpace=wrap;html=1;left=0;right=0;fillColor=none;" vertex="1" parent="1">
          <mxGeometry x="310.25" y="1490" width="389.75" height="10" as="geometry" />
        </mxCell>
        <mxCell id="PrfleeTUdsi41c9WUQBj-102" value="Routing Service Mgr" style="whiteSpace=wrap;html=1;aspect=fixed;" vertex="1" parent="1">
          <mxGeometry x="248" y="1510" width="80" height="80" as="geometry" />
        </mxCell>
        <mxCell id="PrfleeTUdsi41c9WUQBj-103" value="" style="endArrow=classic;html=1;rounded=0;exitX=0.571;exitY=0.015;exitDx=0;exitDy=0;exitPerimeter=0;entryX=0;entryY=0.5;entryDx=0;entryDy=0;" edge="1" parent="1" source="PrfleeTUdsi41c9WUQBj-94" target="PrfleeTUdsi41c9WUQBj-102">
          <mxGeometry width="50" height="50" relative="1" as="geometry">
            <mxPoint x="300" y="1460" as="sourcePoint" />
            <mxPoint x="350" y="1410" as="targetPoint" />
          </mxGeometry>
        </mxCell>
        <mxCell id="PrfleeTUdsi41c9WUQBj-104" value="DB" style="shape=cylinder3;whiteSpace=wrap;html=1;boundedLbl=1;backgroundOutline=1;size=15;" vertex="1" parent="1">
          <mxGeometry x="560" y="1510" width="60" height="80" as="geometry" />
        </mxCell>
        <mxCell id="PrfleeTUdsi41c9WUQBj-105" value="Map Service" style="whiteSpace=wrap;html=1;aspect=fixed;" vertex="1" parent="1">
          <mxGeometry x="381" y="1510" width="80" height="80" as="geometry" />
        </mxCell>
        <mxCell id="PrfleeTUdsi41c9WUQBj-106" value="" style="endArrow=classic;html=1;rounded=0;exitX=1.013;exitY=0.429;exitDx=0;exitDy=0;exitPerimeter=0;" edge="1" parent="1" source="PrfleeTUdsi41c9WUQBj-102">
          <mxGeometry width="50" height="50" relative="1" as="geometry">
            <mxPoint x="300" y="1450" as="sourcePoint" />
            <mxPoint x="380" y="1544" as="targetPoint" />
          </mxGeometry>
        </mxCell>
        <mxCell id="PrfleeTUdsi41c9WUQBj-107" value="" style="endArrow=classic;html=1;rounded=0;entryX=0;entryY=0.5;entryDx=0;entryDy=0;entryPerimeter=0;" edge="1" parent="1" target="PrfleeTUdsi41c9WUQBj-104">
          <mxGeometry width="50" height="50" relative="1" as="geometry">
            <mxPoint x="460" y="1550" as="sourcePoint" />
            <mxPoint x="390" y="1554" as="targetPoint" />
          </mxGeometry>
        </mxCell>
        <mxCell id="PrfleeTUdsi41c9WUQBj-108" value="Routing Service" style="triangle;whiteSpace=wrap;html=1;" vertex="1" parent="1">
          <mxGeometry x="155" y="1443.88" width="60" height="80" as="geometry" />
        </mxCell>
        <mxCell id="PrfleeTUdsi41c9WUQBj-109" value="Direction&lt;br&gt;Service" style="whiteSpace=wrap;html=1;aspect=fixed;" vertex="1" parent="1">
          <mxGeometry x="401" y="1630" width="80" height="80" as="geometry" />
        </mxCell>
        <mxCell id="PrfleeTUdsi41c9WUQBj-110" value="" style="endArrow=classic;html=1;rounded=0;entryX=0.679;entryY=1.004;entryDx=0;entryDy=0;entryPerimeter=0;" edge="1" parent="1" target="PrfleeTUdsi41c9WUQBj-120">
          <mxGeometry width="50" height="50" relative="1" as="geometry">
            <mxPoint x="400" y="1670" as="sourcePoint" />
            <mxPoint x="350" y="1550" as="targetPoint" />
          </mxGeometry>
        </mxCell>
        <mxCell id="PrfleeTUdsi41c9WUQBj-111" value="" style="shape=process;whiteSpace=wrap;html=1;backgroundOutline=1;container=1;direction=south;" vertex="1" parent="1">
          <mxGeometry x="63.88" y="1393.88" width="60" height="66.13" as="geometry" />
        </mxCell>
        <mxCell id="PrfleeTUdsi41c9WUQBj-112" value="" style="shape=process;whiteSpace=wrap;html=1;backgroundOutline=1;container=1;direction=south;" vertex="1" parent="1">
          <mxGeometry x="73.88" y="1403.88" width="60" height="66.13" as="geometry" />
        </mxCell>
        <mxCell id="PrfleeTUdsi41c9WUQBj-113" value="" style="shape=process;whiteSpace=wrap;html=1;backgroundOutline=1;container=1;direction=south;" vertex="1" parent="1">
          <mxGeometry x="83.88" y="1413.88" width="60" height="66.13" as="geometry" />
        </mxCell>
        <mxCell id="PrfleeTUdsi41c9WUQBj-115" value="Actor" style="shape=umlActor;verticalLabelPosition=bottom;verticalAlign=top;html=1;outlineConnect=0;" vertex="1" parent="1">
          <mxGeometry x="30" y="1393.88" width="30" height="60" as="geometry" />
        </mxCell>
        <mxCell id="PrfleeTUdsi41c9WUQBj-116" value="Actor" style="shape=umlActor;verticalLabelPosition=bottom;verticalAlign=top;html=1;outlineConnect=0;" vertex="1" parent="1">
          <mxGeometry x="40" y="1403.88" width="30" height="60" as="geometry" />
        </mxCell>
        <mxCell id="PrfleeTUdsi41c9WUQBj-117" value="Actor" style="shape=umlActor;verticalLabelPosition=bottom;verticalAlign=top;html=1;outlineConnect=0;" vertex="1" parent="1">
          <mxGeometry x="50" y="1413.88" width="30" height="60" as="geometry" />
        </mxCell>
        <mxCell id="PrfleeTUdsi41c9WUQBj-118" value="Routing Service" style="triangle;whiteSpace=wrap;html=1;" vertex="1" parent="1">
          <mxGeometry x="165" y="1453.88" width="60" height="80" as="geometry" />
        </mxCell>
        <mxCell id="PrfleeTUdsi41c9WUQBj-119" value="Routing Service" style="triangle;whiteSpace=wrap;html=1;" vertex="1" parent="1">
          <mxGeometry x="175" y="1463.88" width="60" height="80" as="geometry" />
        </mxCell>
        <mxCell id="PrfleeTUdsi41c9WUQBj-120" value="Routing Service Mgr" style="whiteSpace=wrap;html=1;aspect=fixed;" vertex="1" parent="1">
          <mxGeometry x="258" y="1520" width="80" height="80" as="geometry" />
        </mxCell>
        <mxCell id="PrfleeTUdsi41c9WUQBj-121" value="" style="endArrow=classic;html=1;rounded=0;exitX=0.5;exitY=1;exitDx=0;exitDy=0;entryX=0.5;entryY=0;entryDx=0;entryDy=0;" edge="1" parent="1" source="PrfleeTUdsi41c9WUQBj-105" target="PrfleeTUdsi41c9WUQBj-109">
          <mxGeometry width="50" height="50" relative="1" as="geometry">
            <mxPoint x="300" y="1560" as="sourcePoint" />
            <mxPoint x="350" y="1510" as="targetPoint" />
          </mxGeometry>
        </mxCell>
        <mxCell id="PrfleeTUdsi41c9WUQBj-122" value="" style="endArrow=none;html=1;rounded=0;" edge="1" parent="1" target="PrfleeTUdsi41c9WUQBj-101">
          <mxGeometry width="50" height="50" relative="1" as="geometry">
            <mxPoint x="340" y="1530" as="sourcePoint" />
            <mxPoint x="350" y="1510" as="targetPoint" />
          </mxGeometry>
        </mxCell>
        <mxCell id="PrfleeTUdsi41c9WUQBj-123" value="Redis" style="shape=cylinder3;whiteSpace=wrap;html=1;boundedLbl=1;backgroundOutline=1;size=15;" vertex="1" parent="1">
          <mxGeometry x="263.19" y="1610" width="23.62" height="50" as="geometry" />
        </mxCell>
        <mxCell id="PrfleeTUdsi41c9WUQBj-124" value="" style="whiteSpace=wrap;html=1;aspect=fixed;" vertex="1" parent="1">
          <mxGeometry x="60" y="1820" width="530" height="530" as="geometry" />
        </mxCell>
        <mxCell id="PrfleeTUdsi41c9WUQBj-125" value="" style="whiteSpace=wrap;html=1;aspect=fixed;" vertex="1" parent="1">
          <mxGeometry x="122" y="1870" width="80" height="80" as="geometry" />
        </mxCell>
        <mxCell id="PrfleeTUdsi41c9WUQBj-126" value="DB" style="shape=cylinder3;whiteSpace=wrap;html=1;boundedLbl=1;backgroundOutline=1;size=15;" vertex="1" parent="1">
          <mxGeometry x="710" y="1990" width="60" height="80" as="geometry" />
        </mxCell>
        <mxCell id="PrfleeTUdsi41c9WUQBj-127" value="CACHE ROUTES" style="shape=cylinder3;whiteSpace=wrap;html=1;boundedLbl=1;backgroundOutline=1;size=15;" vertex="1" parent="1">
          <mxGeometry x="335" y="1890" width="235" height="310" as="geometry" />
        </mxCell>
        <mxCell id="PrfleeTUdsi41c9WUQBj-128" value="Map Service" style="whiteSpace=wrap;html=1;aspect=fixed;" vertex="1" parent="1">
          <mxGeometry x="391" y="1520" width="80" height="80" as="geometry" />
        </mxCell>
        <mxCell id="PrfleeTUdsi41c9WUQBj-129" value="Map Service" style="whiteSpace=wrap;html=1;aspect=fixed;" vertex="1" parent="1">
          <mxGeometry x="401" y="1530" width="80" height="80" as="geometry" />
        </mxCell>
        <mxCell id="PrfleeTUdsi41c9WUQBj-132" value="DB" style="shape=cylinder3;whiteSpace=wrap;html=1;boundedLbl=1;backgroundOutline=1;size=15;" vertex="1" parent="1">
          <mxGeometry x="570" y="1520" width="60" height="80" as="geometry" />
        </mxCell>
        <mxCell id="PrfleeTUdsi41c9WUQBj-133" value="DB" style="shape=cylinder3;whiteSpace=wrap;html=1;boundedLbl=1;backgroundOutline=1;size=15;" vertex="1" parent="1">
          <mxGeometry x="580" y="1530" width="60" height="80" as="geometry" />
        </mxCell>
        <mxCell id="PrfleeTUdsi41c9WUQBj-138" value="Route Updater ETA" style="whiteSpace=wrap;html=1;aspect=fixed;" vertex="1" parent="1">
          <mxGeometry x="630" y="1383.88" width="80" height="80" as="geometry" />
        </mxCell>
        <mxCell id="PrfleeTUdsi41c9WUQBj-139" value="" style="endArrow=classic;html=1;rounded=0;exitX=0;exitY=0.5;exitDx=0;exitDy=0;entryX=0.75;entryY=0;entryDx=0;entryDy=0;" edge="1" parent="1" source="PrfleeTUdsi41c9WUQBj-138" target="PrfleeTUdsi41c9WUQBj-101">
          <mxGeometry width="50" height="50" relative="1" as="geometry">
            <mxPoint x="440" y="1540" as="sourcePoint" />
            <mxPoint x="490" y="1490" as="targetPoint" />
          </mxGeometry>
        </mxCell>
        <mxCell id="PrfleeTUdsi41c9WUQBj-140" value="" style="endArrow=classic;html=1;rounded=0;" edge="1" parent="1" source="PrfleeTUdsi41c9WUQBj-132">
          <mxGeometry width="50" height="50" relative="1" as="geometry">
            <mxPoint x="440" y="1540" as="sourcePoint" />
            <mxPoint x="490" y="1490" as="targetPoint" />
          </mxGeometry>
        </mxCell>
        <mxCell id="PrfleeTUdsi41c9WUQBj-142" value="Cassandra" style="shape=cylinder3;whiteSpace=wrap;html=1;boundedLbl=1;backgroundOutline=1;size=15;" vertex="1" parent="1">
          <mxGeometry x="720" y="1523.88" width="60" height="80" as="geometry" />
        </mxCell>
        <mxCell id="PrfleeTUdsi41c9WUQBj-145" value="Historical Data Service" style="whiteSpace=wrap;html=1;aspect=fixed;" vertex="1" parent="1">
          <mxGeometry x="730" y="1400.0100000000002" width="80" height="80" as="geometry" />
        </mxCell>
        <mxCell id="PrfleeTUdsi41c9WUQBj-146" value="" style="endArrow=classic;html=1;rounded=0;exitX=0.5;exitY=1;exitDx=0;exitDy=0;entryX=0.5;entryY=0;entryDx=0;entryDy=0;entryPerimeter=0;" edge="1" parent="1" source="PrfleeTUdsi41c9WUQBj-145" target="PrfleeTUdsi41c9WUQBj-142">
          <mxGeometry width="50" height="50" relative="1" as="geometry">
            <mxPoint x="440" y="1540" as="sourcePoint" />
            <mxPoint x="490" y="1490" as="targetPoint" />
          </mxGeometry>
        </mxCell>
      </root>
    </mxGraphModel>
  </diagram>
</mxfile>
